o Main
v -0.5 0 0.5
v 0.375 0 0.375
v 0.5 0 0.5
v 0.5 0 -0.5
v 0.5 1 -0.5
v 0.5 0.125 -0.375
v 0.5 0.875 0.375
v 0.5 1 0.5
v 0.5 0.125 0.375
v -0.375 0 -0.375
v -0.5 0 -0.5
v -0.375 0 0.375
v -0.5 0.125 -0.375
v -0.5 1 -0.5
v -0.5 0.875 0.375
v -0.5 1 0.5
v -0.5 0.875 -0.375
v 0.375 0.875 0.5
v -0.375 0.125 0.5
v -0.375 0.875 0.5
v 0.375 0.875 -0.5
v -0.375 0.875 -0.5
v 0.375 0.125 -0.5
v -0.375 1 -0.375
v 0.375 1 -0.375
v -0.375 1 0.375
v 0.375 1 0.375
v 0.375 0.125 -0.375
v -0.375 0.125 -0.375
v -0.375 0.125 -0.5
v 0.375 0.875 -0.375
v 0.375 0.9375 -0.375
v 0.375 0.9375 0.375
v -0.375 0.9375 -0.375
v -0.375 0.9375 0.375
v 0.375 0 -0.375
v -0.375 0.0625 -0.375
v 0.375 0.0625 0.375
v -0.375 0.0625 0.375
v -0.375 0.875 -0.375
v -0.375 0.125 0.375
v -0.5 0.125 0.375
v -0.375 0.875 0.375
v 0.375 0.125 0.375
v 0.375 0.125 0.5
v 0.375 0.0625 -0.375
v 0.5 0.875 -0.375
v 0.375 0.875 0.375
v -0.3125 0.8125 -0.4375
v 0.3125 0.1875 -0.4375
v -0.3125 0.1875 -0.4375
v -0.375 0.125 -0.375
v 0.375 0.875 -0.375
v 0.3125 0.8125 -0.4375
v 0.375 0.125 -0.375
v -0.1875 0.6875 -0.5
v 0.1875 0.3125 -0.5
v -0.1875 0.3125 -0.5
v -0.1875 0.6875 -0.4375
v -0.1875 0.3125 -0.4375
v 0.1875 0.3125 -0.4375
v 0.1875 0.6875 -0.5
v 0.1875 0.6875 -0.4375
v -0.4375 0.8125 0.3125
v -0.4375 0.1875 -0.3125
v -0.4375 0.1875 0.3125
v -0.375 0.125 0.375
v -0.375 0.875 -0.375
v -0.4375 0.8125 -0.3125
v -0.375 0.125 -0.375
v -0.5 0.6875 0.1875
v -0.5 0.3125 -0.1875
v -0.5 0.3125 0.1875
v -0.4375 0.6875 0.1875
v -0.4375 0.3125 0.1875
v -0.4375 0.3125 -0.1875
v -0.5 0.6875 -0.1875
v -0.4375 0.6875 -0.1875
v 0.3125 0.8125 0.4375
v -0.3125 0.1875 0.4375
v 0.3125 0.1875 0.4375
v 0.375 0.125 0.375
v -0.375 0.875 0.375
v -0.3125 0.8125 0.4375
v -0.375 0.125 0.375
v 0.1875 0.6875 0.5
v -0.1875 0.3125 0.5
v 0.1875 0.3125 0.5
v 0.1875 0.6875 0.4375
v 0.1875 0.3125 0.4375
v -0.1875 0.3125 0.4375
v -0.1875 0.6875 0.5
v -0.1875 0.6875 0.4375
v 0.4375 0.8125 -0.3125
v 0.4375 0.1875 0.3125
v 0.4375 0.1875 -0.3125
v 0.375 0.125 -0.375
v 0.375 0.875 0.375
v 0.4375 0.8125 0.3125
v 0.375 0.125 0.375
v 0.5 0.6875 -0.1875
v 0.5 0.3125 0.1875
v 0.5 0.3125 -0.1875
v 0.4375 0.6875 -0.1875
v 0.4375 0.3125 -0.1875
v 0.4375 0.3125 0.1875
v 0.5 0.6875 0.1875
v 0.4375 0.6875 0.1875
v 0.143506 3.6875 -0.346455
v 0 3.6875 -0.3125
v 0.119588 3.6875 -0.288712
v -0.143506 3.6875 -0.346455
v 0 3.6875 -0.375
v -0.265165 3.6875 -0.265165
v -0.119589 3.6875 -0.288712
v -0.346455 3.6875 -0.143506
v -0.220971 3.6875 -0.220971
v -0.375 3.6875 0
v -0.288712 3.6875 -0.119589
v -0.288712 3.6875 0.119589
v -0.3125 3.6875 0
v -0.346455 3.6875 0.143506
v -0.220971 3.6875 0.220971
v -0.265165 3.6875 0.265165
v -0.119589 3.6875 0.288712
v -0.143506 3.6875 0.346455
v 0 3.6875 0.3125
v 0 3.6875 0.375
v 0.119588 3.6875 0.288712
v 0.143506 3.6875 0.346455
v 0.220971 3.6875 0.220971
v 0.265165 3.6875 0.265165
v 0.288712 3.6875 0.119589
v 0.346455 3.6875 0.143506
v 0.3125 3.6875 0
v 0.346455 3.6875 -0.143506
v 0.375 3.6875 0
v 0.265165 3.6875 -0.265165
v 0.288712 3.6875 -0.119589
v 0.220971 3.6875 -0.220971
v 0.3125 3.9375 0
v 0.220971 3.9375 -0.220971
v 0 3.9375 -0.3125
v 0.125 4 0.125
v -0.125 4 -0.125
v -0.125 4 0.125
v -0.125 3.9375 -0.125
v 0.125 4 -0.125
v 0.125 3.9375 -0.125
v 0.125 3.9375 0.125
v -0.125 3.9375 0.125
v 0.03125 4 -0.125
v -0.03125 4 -0.375
v -0.03125 4 -0.125
v -0.0625 4 -0.125
v -0.125 4 -0.375
v -0.125 4 -0.125
v 0.125 4 -0.125
v 0.0625 4 -0.375
v 0.0625 4 -0.125
v 0.125 4 -0.375
v 0.0625 3.9375 -0.4375
v -0.0625 4 -0.375
v -0.125 3.9375 -0.4375
v 0.03125 4 -0.375
v -0.03125 3.9375 -0.4375
v 0.125 3.9375 -0.4375
v 0.0625 1 -0.4375
v -0.0625 3.9375 -0.4375
v -0.125 1 -0.4375
v 0.03125 3.9375 -0.4375
v -0.03125 1 -0.4375
v -0.375 0.875 -0.375
v -0.375 0.875 0.375
v 0.375 0.875 0.375
v 0.375 0.875 -0.375
v -0.119589 3.9375 -0.288712
v -0.3125 3.9375 0
v -0.220971 3.9375 -0.220971
v -0.288712 3.9375 -0.119589
v -0.288712 3.9375 0.119589
v -0.220971 3.9375 0.220971
v -0.119589 3.9375 0.288712
v 0 3.9375 0.3125
v 0.119588 3.9375 0.288712
v 0.220971 3.9375 0.220971
v 0.288712 3.9375 0.119589
v 0.288712 3.9375 -0.119589
v 0.119588 3.9375 -0.288712
v 0.125 1 -0.4375
v -0.0625 1 -0.4375
v 0.03125 1 -0.4375
v 0.143506 0.9375 0.346455
v 0 3.6875 0.375
v 0 0.9375 0.375
v -0.265165 0.9375 -0.265165
v -0.143506 3.6875 -0.346455
v -0.143506 0.9375 -0.346455
v 0.265165 0.9375 0.265165
v 0.143506 3.6875 0.346455
v -0.346455 0.9375 -0.143506
v -0.265165 3.6875 -0.265165
v 0.346455 0.9375 0.143506
v 0.265165 3.6875 0.265165
v -0.375 0.9375 0
v -0.346455 3.6875 -0.143506
v 0.375 0.9375 0
v 0.346455 3.6875 0.143506
v -0.346455 0.9375 0.143506
v -0.375 3.6875 0
v 0.346455 0.9375 -0.143506
v 0.375 3.6875 0
v -0.265165 0.9375 0.265165
v -0.346455 3.6875 0.143506
v 0.265165 0.9375 -0.265165
v 0.346455 3.6875 -0.143506
v -0.143506 0.9375 0.346455
v -0.265165 3.6875 0.265165
v 0.143506 0.9375 -0.346455
v 0.265165 3.6875 -0.265165
v -0.143506 3.6875 0.346455
v 0 3.6875 -0.375
v 0 0.9375 -0.375
v 0.143506 3.6875 -0.346455
v 0.288712 3.6875 -0.119589
v 0.3125 3.9375 0
v 0.3125 3.6875 0
v -0.220971 3.6875 0.220971
v -0.288712 3.9375 0.119589
v -0.288712 3.6875 0.119589
v 0.220971 3.6875 -0.220971
v 0.288712 3.9375 -0.119589
v -0.119589 3.6875 0.288712
v -0.220971 3.9375 0.220971
v 0.119588 3.6875 -0.288712
v 0.220971 3.9375 -0.220971
v 0 3.6875 0.3125
v -0.119589 3.9375 0.288712
v -0.119589 3.6875 -0.288712
v 0 3.9375 -0.3125
v 0 3.6875 -0.3125
v 0.119588 3.9375 -0.288712
v 0.119588 3.6875 0.288712
v 0 3.9375 0.3125
v -0.220971 3.6875 -0.220971
v -0.119589 3.9375 -0.288712
v 0.220971 3.6875 0.220971
v 0.119588 3.9375 0.288712
v -0.288712 3.6875 -0.119589
v -0.220971 3.9375 -0.220971
v 0.288712 3.6875 0.119589
v 0.220971 3.9375 0.220971
v -0.3125 3.6875 0
v -0.288712 3.9375 -0.119589
v 0.288712 3.9375 0.119589
v -0.3125 3.9375 0
vt 0.036364 0.06666700000000014
vt 0.054545 0.25333300000000003
vt 0.036364 0.28
vt 0.063636 0.266667
vt 0.19090899999999997 0.29333300000000007
vt 0.045455 0.29333300000000007
vt 0.272727 0.28
vt 0.254545 0.09333300000000011
vt 0.272727 0.06666700000000014
vt 0.063636 0.026666999999999885
vt 0.19090899999999997 0.05333299999999985
vt 0.045455 0.05333299999999985
vt 0.172727 0.32000000000000006
vt 0.045455 0.29333300000000007
vt 0.19090899999999997 0.29333300000000007
vt 0.290909 0.09333300000000011
vt 0.272727 0.28
vt 0.272727 0.06666700000000014
vt 0.20000000000000004 0.28
vt 0.181818 0.09333300000000011
vt 0.20000000000000004 0.06666700000000014
vt 0.19090899999999997 0.05333299999999985
vt 0.063636 0.07999999999999996
vt 0.045455 0.05333299999999985
vt 0.290909 0.09333300000000011
vt 0.272727 0.28
vt 0.272727 0.06666700000000014
vt 0.254545 0.25333300000000003
vt 0.272727 0.06666700000000014
vt 0.272727 0.28
vt 0.172727 0.32000000000000006
vt 0.045455 0.29333300000000007
vt 0.19090899999999997 0.29333300000000007
vt 0.045455 0.05333299999999985
vt 0.172727 0.026666999999999885
vt 0.19090899999999997 0.05333299999999985
vt 0.254545 0.25333300000000003
vt 0.272727 0.06666700000000014
vt 0.272727 0.28
vt 0.290909 0.09333300000000011
vt 0.272727 0.28
vt 0.272727 0.06666700000000014
vt 0.036364 0.28
vt 0.018182 0.09333300000000011
vt 0.036364 0.06666700000000014
vt 0.018182 0.25333300000000003
vt 0.036364 0.06666700000000014
vt 0.036364 0.28
vt 0.218182 0.09333300000000011
vt 0.20000000000000004 0.28
vt 0.20000000000000004 0.06666700000000014
vt 0.254545 0.25333300000000003
vt 0.272727 0.06666700000000014
vt 0.272727 0.28
vt 0.272727 0.06666700000000014
vt 0.290909 0.25333300000000003
vt 0.272727 0.28
vt 0.20000000000000004 0.06666700000000014
vt 0.218182 0.25333300000000003
vt 0.20000000000000004 0.28
vt 0.181818 0.25333300000000003
vt 0.20000000000000004 0.06666700000000014
vt 0.20000000000000004 0.28
vt 0.172727 0.07999999999999996
vt 0.045455 0.05333299999999985
vt 0.19090899999999997 0.05333299999999985
vt 0.063636 0.266667
vt 0.19090899999999997 0.29333300000000007
vt 0.045455 0.29333300000000007
vt 0.054545 0.09333300000000011
vt 0.036364 0.28
vt 0.036364 0.06666700000000014
vt 0.30909099999999995 0.09333300000000011
vt 0.290909 0.25333300000000003
vt 0.290909 0.09333300000000011
vt 0.236364 0.09333300000000011
vt 0.218182 0.25333300000000003
vt 0.218182 0.09333300000000011
vt 0.254545 0.25333300000000003
vt 0.236364 0.09333300000000011
vt 0.254545 0.09333300000000011
vt 0.236364 0.09333300000000011
vt 0.218182 0.25333300000000003
vt 0.218182 0.09333300000000011
vt 0.181818 0.25333300000000003
vt 0.172727 0.09333300000000011
vt 0.181818 0.09333300000000011
vt 0.063636 0.09333300000000011
vt 0.172727 0.25333300000000003
vt 0.063636 0.25333300000000003
vt 0.054545 0.09333300000000011
vt 0.063636 0.25333300000000003
vt 0.054545 0.25333300000000003
vt 0.181818 0.25333300000000003
vt 0.172727 0.09333300000000011
vt 0.181818 0.09333300000000011
vt 0.054545 0.09333300000000011
vt 0.063636 0.25333300000000003
vt 0.054545 0.25333300000000003
vt 0.172727 0.07999999999999996
vt 0.063636 0.09333300000000011
vt 0.063636 0.07999999999999996
vt 0.30909099999999995 0.09333300000000011
vt 0.290909 0.25333300000000003
vt 0.290909 0.09333300000000011
vt 0.172727 0.34666700000000006
vt 0.063636 0.32000000000000006
vt 0.172727 0.32000000000000006
vt 0.063636 0
vt 0.172727 0.026666999999999885
vt 0.063636 0.026666999999999885
vt 0.236364 0.25333300000000003
vt 0.254545 0.09333300000000011
vt 0.254545 0.25333300000000003
vt 0 0.25333300000000003
vt 0.018182 0.09333300000000011
vt 0.018182 0.25333300000000003
vt 0.290909 0.09333300000000011
vt 0.30909099999999995 0.25333300000000003
vt 0.290909 0.25333300000000003
vt 1 0.853333
vt 0.418182 0
vt 1 0
vt 0 0.25333300000000003
vt 0.018182 0.09333300000000011
vt 0.018182 0.25333300000000003
vt 0.063636 0.266667
vt 0.172727 0.25333300000000003
vt 0.172727 0.266667
vt 0.254545 0.25333300000000003
vt 0.236364 0.09333300000000011
vt 0.254545 0.09333300000000011
vt 0.172727 0.34666700000000006
vt 0.063636 0.32000000000000006
vt 0.172727 0.32000000000000006
vt 0.254545 0.25333300000000003
vt 0.236364 0.09333300000000011
vt 0.254545 0.09333300000000011
vt 0.063636 0
vt 0.172727 0.026666999999999885
vt 0.063636 0.026666999999999885
vt 0.30909099999999995 0.09333300000000011
vt 0.290909 0.25333300000000003
vt 0.290909 0.09333300000000011
vt 0.409091 0.146667
vt 0.318182 0.01333300000000004
vt 0.409091 0.01333300000000004
vt 0.418182 0
vt 0.409091 0.146667
vt 0.409091 0.01333300000000004
vt 0.409091 0.146667
vt 0.30909099999999995 0.16000000000000003
vt 0.318182 0.146667
vt 0.318182 0.146667
vt 0.30909099999999995 0
vt 0.318182 0.01333300000000004
vt 0.318182 0.01333300000000004
vt 0.418182 0
vt 0.409091 0.01333300000000004
vt 0.372727 0.25333300000000003
vt 0.318182 0.17333299999999996
vt 0.372727 0.17333299999999996
vt 0.38181799999999994 0.25333300000000003
vt 0.372727 0.17333299999999996
vt 0.38181799999999994 0.17333299999999996
vt 0.30909099999999995 0.17333299999999996
vt 0.318182 0.25333300000000003
vt 0.30909099999999995 0.25333300000000003
vt 0.372727 0.16000000000000003
vt 0.318182 0.17333299999999996
vt 0.318182 0.16000000000000003
vt 0.318182 0.266667
vt 0.372727 0.25333300000000003
vt 0.372727 0.266667
vt 0.409091 0.146667
vt 0.318182 0.01333300000000004
vt 0.409091 0.01333300000000004
vt 0.418182 0
vt 0.409091 0.146667
vt 0.409091 0.01333300000000004
vt 0.409091 0.146667
vt 0.30909099999999995 0.16000000000000003
vt 0.318182 0.146667
vt 0.318182 0.146667
vt 0.30909099999999995 0
vt 0.318182 0.01333300000000004
vt 0.318182 0.01333300000000004
vt 0.418182 0
vt 0.409091 0.01333300000000004
vt 0.372727 0.25333300000000003
vt 0.318182 0.17333299999999996
vt 0.372727 0.17333299999999996
vt 0.38181799999999994 0.25333300000000003
vt 0.372727 0.17333299999999996
vt 0.38181799999999994 0.17333299999999996
vt 0.30909099999999995 0.17333299999999996
vt 0.318182 0.25333300000000003
vt 0.30909099999999995 0.25333300000000003
vt 0.372727 0.16000000000000003
vt 0.318182 0.17333299999999996
vt 0.318182 0.16000000000000003
vt 0.318182 0.266667
vt 0.372727 0.25333300000000003
vt 0.372727 0.266667
vt 0.409091 0.146667
vt 0.318182 0.01333300000000004
vt 0.409091 0.01333300000000004
vt 0.418182 0
vt 0.409091 0.146667
vt 0.409091 0.01333300000000004
vt 0.409091 0.146667
vt 0.30909099999999995 0.16000000000000003
vt 0.318182 0.146667
vt 0.318182 0.146667
vt 0.30909099999999995 0
vt 0.318182 0.01333300000000004
vt 0.318182 0.01333300000000004
vt 0.418182 0
vt 0.409091 0.01333300000000004
vt 0.372727 0.25333300000000003
vt 0.318182 0.17333299999999996
vt 0.372727 0.17333299999999996
vt 0.38181799999999994 0.25333300000000003
vt 0.372727 0.17333299999999996
vt 0.38181799999999994 0.17333299999999996
vt 0.30909099999999995 0.17333299999999996
vt 0.318182 0.25333300000000003
vt 0.30909099999999995 0.25333300000000003
vt 0.372727 0.16000000000000003
vt 0.318182 0.17333299999999996
vt 0.318182 0.16000000000000003
vt 0.318182 0.266667
vt 0.372727 0.25333300000000003
vt 0.372727 0.266667
vt 0.409091 0.146667
vt 0.318182 0.01333300000000004
vt 0.409091 0.01333300000000004
vt 0.418182 0
vt 0.409091 0.146667
vt 0.409091 0.01333300000000004
vt 0.409091 0.146667
vt 0.30909099999999995 0.16000000000000003
vt 0.318182 0.146667
vt 0.318182 0.146667
vt 0.30909099999999995 0
vt 0.318182 0.01333300000000004
vt 0.318182 0.01333300000000004
vt 0.418182 0
vt 0.409091 0.01333300000000004
vt 0.372727 0.25333300000000003
vt 0.318182 0.17333299999999996
vt 0.372727 0.17333299999999996
vt 0.38181799999999994 0.25333300000000003
vt 0.372727 0.17333299999999996
vt 0.38181799999999994 0.17333299999999996
vt 0.30909099999999995 0.17333299999999996
vt 0.318182 0.25333300000000003
vt 0.30909099999999995 0.25333300000000003
vt 0.372727 0.16000000000000003
vt 0.318182 0.17333299999999996
vt 0.318182 0.16000000000000003
vt 0.318182 0.266667
vt 0.372727 0.25333300000000003
vt 0.372727 0.266667
vt 0.063636 0.266667
vt 0.172727 0.25333300000000003
vt 0.172727 0.266667
vt 0.172727 0.07999999999999996
vt 0.063636 0.09333300000000011
vt 0.063636 0.07999999999999996
vt 0.272727 0.933333
vt 0.290909 0.946667
vt 0.272727 0.946667
vt 0.018182 0.933333
vt 0 0.946667
vt 0 0.933333
vt 0.036364 0.933333
vt 0.018182 0.946667
vt 0.018182 0.933333
vt 0.054545 0.933333
vt 0.036364 0.946667
vt 0.036364 0.933333
vt 0.072727 0.933333
vt 0.054545 0.946667
vt 0.054545 0.933333
vt 0.072727 0.933333
vt 0.090909 0.946667
vt 0.072727 0.946667
vt 0.090909 0.933333
vt 0.109091 0.946667
vt 0.090909 0.946667
vt 0.109091 0.933333
vt 0.127273 0.946667
vt 0.109091 0.946667
vt 0.127273 0.933333
vt 0.14545499999999997 0.946667
vt 0.127273 0.946667
vt 0.14545499999999997 0.933333
vt 0.163636 0.946667
vt 0.14545499999999997 0.946667
vt 0.163636 0.933333
vt 0.181818 0.946667
vt 0.163636 0.946667
vt 0.181818 0.933333
vt 0.20000000000000004 0.946667
vt 0.181818 0.946667
vt 0.20000000000000004 0.933333
vt 0.218182 0.946667
vt 0.20000000000000004 0.946667
vt 0.236364 0.933333
vt 0.218182 0.946667
vt 0.218182 0.933333
vt 0.254545 0.933333
vt 0.236364 0.946667
vt 0.236364 0.933333
vt 0.272727 0.933333
vt 0.254545 0.946667
vt 0.254545 0.933333
vt 0.336364 0.2671319999999999
vt 0.368281 0.28652199999999994
vt 0.381501 0.333333
vt 0.3 0.41333299999999995
vt 0.336364 0.46666699999999994
vt 0.3 0.46666699999999994
vt 0.345455 0.46666699999999994
vt 0.336364 0.41333299999999995
vt 0.345455 0.41333299999999995
vt 0.290909 0.41333299999999995
vt 0.3 0.46666699999999994
vt 0.290909 0.46666699999999994
vt 0.336364 0.4
vt 0.3 0.41333299999999995
vt 0.3 0.4
vt 0.3 0.48
vt 0.336364 0.46666699999999994
vt 0.336364 0.48
vt 0.39090899999999995 0.853333
vt 0.4000000000000001 0.8
vt 0.4000000000000001 0.853333
vt 0.4000000000000001 0.853333
vt 0.409091 0.8
vt 0.409091 0.853333
vt 0.38181799999999994 0.853333
vt 0.39090899999999995 0.8
vt 0.39090899999999995 0.853333
vt 0.38181799999999994 0.8
vt 0.39090899999999995 0.786667
vt 0.39090899999999995 0.8
vt 0.4000000000000001 0.8
vt 0.409091 0.786667
vt 0.409091 0.8
vt 0.39090899999999995 0.8
vt 0.4000000000000001 0.786667
vt 0.4000000000000001 0.8
vt 0.38181799999999994 0.786667
vt 0.39090899999999995 0.16000000000000003
vt 0.39090899999999995 0.786667
vt 0.4000000000000001 0.786667
vt 0.409091 0.16000000000000003
vt 0.409091 0.786667
vt 0.39090899999999995 0.786667
vt 0.4000000000000001 0.16000000000000003
vt 0.4000000000000001 0.786667
vt 0.036364 0.06666700000000014
vt 0.054545 0.09333300000000011
vt 0.054545 0.25333300000000003
vt 0.063636 0.266667
vt 0.172727 0.266667
vt 0.19090899999999997 0.29333300000000007
vt 0.272727 0.28
vt 0.254545 0.25333300000000003
vt 0.254545 0.09333300000000011
vt 0.063636 0.026666999999999885
vt 0.172727 0.026666999999999885
vt 0.19090899999999997 0.05333299999999985
vt 0.172727 0.32000000000000006
vt 0.063636 0.32000000000000006
vt 0.045455 0.29333300000000007
vt 0.290909 0.09333300000000011
vt 0.290909 0.25333300000000003
vt 0.272727 0.28
vt 0.20000000000000004 0.28
vt 0.181818 0.25333300000000003
vt 0.181818 0.09333300000000011
vt 0.19090899999999997 0.05333299999999985
vt 0.172727 0.07999999999999996
vt 0.063636 0.07999999999999996
vt 0.290909 0.09333300000000011
vt 0.290909 0.25333300000000003
vt 0.272727 0.28
vt 0.254545 0.25333300000000003
vt 0.254545 0.09333300000000011
vt 0.272727 0.06666700000000014
vt 0.172727 0.32000000000000006
vt 0.063636 0.32000000000000006
vt 0.045455 0.29333300000000007
vt 0.045455 0.05333299999999985
vt 0.063636 0.026666999999999885
vt 0.172727 0.026666999999999885
vt 0.254545 0.25333300000000003
vt 0.254545 0.09333300000000011
vt 0.272727 0.06666700000000014
vt 0.290909 0.09333300000000011
vt 0.290909 0.25333300000000003
vt 0.272727 0.28
vt 0.036364 0.28
vt 0.018182 0.25333300000000003
vt 0.018182 0.09333300000000011
vt 0.018182 0.25333300000000003
vt 0.018182 0.09333300000000011
vt 0.036364 0.06666700000000014
vt 0.218182 0.09333300000000011
vt 0.218182 0.25333300000000003
vt 0.20000000000000004 0.28
vt 0.254545 0.25333300000000003
vt 0.254545 0.09333300000000011
vt 0.272727 0.06666700000000014
vt 0.272727 0.06666700000000014
vt 0.290909 0.09333300000000011
vt 0.290909 0.25333300000000003
vt 0.20000000000000004 0.06666700000000014
vt 0.218182 0.09333300000000011
vt 0.218182 0.25333300000000003
vt 0.181818 0.25333300000000003
vt 0.181818 0.09333300000000011
vt 0.20000000000000004 0.06666700000000014
vt 0.172727 0.07999999999999996
vt 0.063636 0.07999999999999996
vt 0.045455 0.05333299999999985
vt 0.063636 0.266667
vt 0.172727 0.266667
vt 0.19090899999999997 0.29333300000000007
vt 0.054545 0.09333300000000011
vt 0.054545 0.25333300000000003
vt 0.036364 0.28
vt 0.30909099999999995 0.09333300000000011
vt 0.30909099999999995 0.25333300000000003
vt 0.290909 0.25333300000000003
vt 0.236364 0.09333300000000011
vt 0.236364 0.25333300000000003
vt 0.218182 0.25333300000000003
vt 0.254545 0.25333300000000003
vt 0.236364 0.25333300000000003
vt 0.236364 0.09333300000000011
vt 0.236364 0.09333300000000011
vt 0.236364 0.25333300000000003
vt 0.218182 0.25333300000000003
vt 0.181818 0.25333300000000003
vt 0.172727 0.25333300000000003
vt 0.172727 0.09333300000000011
vt 0.063636 0.09333300000000011
vt 0.172727 0.09333300000000011
vt 0.172727 0.25333300000000003
vt 0.054545 0.09333300000000011
vt 0.063636 0.09333300000000011
vt 0.063636 0.25333300000000003
vt 0.181818 0.25333300000000003
vt 0.172727 0.25333300000000003
vt 0.172727 0.09333300000000011
vt 0.054545 0.09333300000000011
vt 0.063636 0.09333300000000011
vt 0.063636 0.25333300000000003
vt 0.172727 0.07999999999999996
vt 0.172727 0.09333300000000011
vt 0.063636 0.09333300000000011
vt 0.30909099999999995 0.09333300000000011
vt 0.30909099999999995 0.25333300000000003
vt 0.290909 0.25333300000000003
vt 0.172727 0.34666700000000006
vt 0.063636 0.34666700000000006
vt 0.063636 0.32000000000000006
vt 0.063636 0
vt 0.172727 0
vt 0.172727 0.026666999999999885
vt 0.236364 0.25333300000000003
vt 0.236364 0.09333300000000011
vt 0.254545 0.09333300000000011
vt 0 0.25333300000000003
vt 0 0.09333300000000011
vt 0.018182 0.09333300000000011
vt 0.290909 0.09333300000000011
vt 0.30909099999999995 0.09333300000000011
vt 0.30909099999999995 0.25333300000000003
vt 1 0.853333
vt 0.418182 0.853333
vt 0.418182 0
vt 0 0.25333300000000003
vt 0 0.09333300000000011
vt 0.018182 0.09333300000000011
vt 0.063636 0.266667
vt 0.063636 0.25333300000000003
vt 0.172727 0.25333300000000003
vt 0.254545 0.25333300000000003
vt 0.236364 0.25333300000000003
vt 0.236364 0.09333300000000011
vt 0.172727 0.34666700000000006
vt 0.063636 0.34666700000000006
vt 0.063636 0.32000000000000006
vt 0.254545 0.25333300000000003
vt 0.236364 0.25333300000000003
vt 0.236364 0.09333300000000011
vt 0.063636 0
vt 0.172727 0
vt 0.172727 0.026666999999999885
vt 0.30909099999999995 0.09333300000000011
vt 0.30909099999999995 0.25333300000000003
vt 0.290909 0.25333300000000003
vt 0.409091 0.146667
vt 0.318182 0.146667
vt 0.318182 0.01333300000000004
vt 0.418182 0
vt 0.418182 0.16000000000000003
vt 0.409091 0.146667
vt 0.409091 0.146667
vt 0.418182 0.16000000000000003
vt 0.30909099999999995 0.16000000000000003
vt 0.318182 0.146667
vt 0.30909099999999995 0.16000000000000003
vt 0.30909099999999995 0
vt 0.318182 0.01333300000000004
vt 0.30909099999999995 0
vt 0.418182 0
vt 0.372727 0.25333300000000003
vt 0.318182 0.25333300000000003
vt 0.318182 0.17333299999999996
vt 0.38181799999999994 0.25333300000000003
vt 0.372727 0.25333300000000003
vt 0.372727 0.17333299999999996
vt 0.30909099999999995 0.17333299999999996
vt 0.318182 0.17333299999999996
vt 0.318182 0.25333300000000003
vt 0.372727 0.16000000000000003
vt 0.372727 0.17333299999999996
vt 0.318182 0.17333299999999996
vt 0.318182 0.266667
vt 0.318182 0.25333300000000003
vt 0.372727 0.25333300000000003
vt 0.409091 0.146667
vt 0.318182 0.146667
vt 0.318182 0.01333300000000004
vt 0.418182 0
vt 0.418182 0.16000000000000003
vt 0.409091 0.146667
vt 0.409091 0.146667
vt 0.418182 0.16000000000000003
vt 0.30909099999999995 0.16000000000000003
vt 0.318182 0.146667
vt 0.30909099999999995 0.16000000000000003
vt 0.30909099999999995 0
vt 0.318182 0.01333300000000004
vt 0.30909099999999995 0
vt 0.418182 0
vt 0.372727 0.25333300000000003
vt 0.318182 0.25333300000000003
vt 0.318182 0.17333299999999996
vt 0.38181799999999994 0.25333300000000003
vt 0.372727 0.25333300000000003
vt 0.372727 0.17333299999999996
vt 0.30909099999999995 0.17333299999999996
vt 0.318182 0.17333299999999996
vt 0.318182 0.25333300000000003
vt 0.372727 0.16000000000000003
vt 0.372727 0.17333299999999996
vt 0.318182 0.17333299999999996
vt 0.318182 0.266667
vt 0.318182 0.25333300000000003
vt 0.372727 0.25333300000000003
vt 0.409091 0.146667
vt 0.318182 0.146667
vt 0.318182 0.01333300000000004
vt 0.418182 0
vt 0.418182 0.16000000000000003
vt 0.409091 0.146667
vt 0.409091 0.146667
vt 0.418182 0.16000000000000003
vt 0.30909099999999995 0.16000000000000003
vt 0.318182 0.146667
vt 0.30909099999999995 0.16000000000000003
vt 0.30909099999999995 0
vt 0.318182 0.01333300000000004
vt 0.30909099999999995 0
vt 0.418182 0
vt 0.372727 0.25333300000000003
vt 0.318182 0.25333300000000003
vt 0.318182 0.17333299999999996
vt 0.38181799999999994 0.25333300000000003
vt 0.372727 0.25333300000000003
vt 0.372727 0.17333299999999996
vt 0.30909099999999995 0.17333299999999996
vt 0.318182 0.17333299999999996
vt 0.318182 0.25333300000000003
vt 0.372727 0.16000000000000003
vt 0.372727 0.17333299999999996
vt 0.318182 0.17333299999999996
vt 0.318182 0.266667
vt 0.318182 0.25333300000000003
vt 0.372727 0.25333300000000003
vt 0.409091 0.146667
vt 0.318182 0.146667
vt 0.318182 0.01333300000000004
vt 0.418182 0
vt 0.418182 0.16000000000000003
vt 0.409091 0.146667
vt 0.409091 0.146667
vt 0.418182 0.16000000000000003
vt 0.30909099999999995 0.16000000000000003
vt 0.318182 0.146667
vt 0.30909099999999995 0.16000000000000003
vt 0.30909099999999995 0
vt 0.318182 0.01333300000000004
vt 0.30909099999999995 0
vt 0.418182 0
vt 0.372727 0.25333300000000003
vt 0.318182 0.25333300000000003
vt 0.318182 0.17333299999999996
vt 0.38181799999999994 0.25333300000000003
vt 0.372727 0.25333300000000003
vt 0.372727 0.17333299999999996
vt 0.30909099999999995 0.17333299999999996
vt 0.318182 0.17333299999999996
vt 0.318182 0.25333300000000003
vt 0.372727 0.16000000000000003
vt 0.372727 0.17333299999999996
vt 0.318182 0.17333299999999996
vt 0.318182 0.266667
vt 0.318182 0.25333300000000003
vt 0.372727 0.25333300000000003
vt 0.063636 0.266667
vt 0.063636 0.25333300000000003
vt 0.172727 0.25333300000000003
vt 0.172727 0.07999999999999996
vt 0.172727 0.09333300000000011
vt 0.063636 0.09333300000000011
vt 0.272727 0.933333
vt 0.290909 0.933333
vt 0.290909 0.946667
vt 0.018182 0.933333
vt 0.018182 0.946667
vt 0 0.946667
vt 0.036364 0.933333
vt 0.036364 0.946667
vt 0.018182 0.946667
vt 0.054545 0.933333
vt 0.054545 0.946667
vt 0.036364 0.946667
vt 0.072727 0.933333
vt 0.072727 0.946667
vt 0.054545 0.946667
vt 0.072727 0.933333
vt 0.090909 0.933333
vt 0.090909 0.946667
vt 0.090909 0.933333
vt 0.109091 0.933333
vt 0.109091 0.946667
vt 0.109091 0.933333
vt 0.127273 0.933333
vt 0.127273 0.946667
vt 0.127273 0.933333
vt 0.14545499999999997 0.933333
vt 0.14545499999999997 0.946667
vt 0.14545499999999997 0.933333
vt 0.163636 0.933333
vt 0.163636 0.946667
vt 0.163636 0.933333
vt 0.181818 0.933333
vt 0.181818 0.946667
vt 0.181818 0.933333
vt 0.20000000000000004 0.933333
vt 0.20000000000000004 0.946667
vt 0.20000000000000004 0.933333
vt 0.218182 0.933333
vt 0.218182 0.946667
vt 0.236364 0.933333
vt 0.236364 0.946667
vt 0.218182 0.946667
vt 0.254545 0.933333
vt 0.254545 0.946667
vt 0.236364 0.946667
vt 0.272727 0.933333
vt 0.272727 0.946667
vt 0.254545 0.946667
vt 0.381501 0.333333
vt 0.378065 0.358668
vt 0.336364 0.399535
vt 0.378065 0.358668
vt 0.368281 0.38014499999999996
vt 0.336364 0.399535
vt 0.368281 0.38014499999999996
vt 0.353637 0.39449599999999996
vt 0.336364 0.399535
vt 0.336364 0.399535
vt 0.31909 0.39449599999999996
vt 0.304447 0.38014499999999996
vt 0.304447 0.38014499999999996
vt 0.294662 0.358668
vt 0.29122599999999993 0.333333
vt 0.29122599999999993 0.333333
vt 0.294662 0.307999
vt 0.304447 0.28652199999999994
vt 0.304447 0.28652199999999994
vt 0.31909 0.27217099999999994
vt 0.336364 0.2671319999999999
vt 0.336364 0.2671319999999999
vt 0.353637 0.27217099999999994
vt 0.368281 0.28652199999999994
vt 0.368281 0.28652199999999994
vt 0.378065 0.307999
vt 0.381501 0.333333
vt 0.336364 0.399535
vt 0.304447 0.38014499999999996
vt 0.381501 0.333333
vt 0.304447 0.38014499999999996
vt 0.29122599999999993 0.333333
vt 0.381501 0.333333
vt 0.29122599999999993 0.333333
vt 0.304447 0.28652199999999994
vt 0.381501 0.333333
vt 0.304447 0.28652199999999994
vt 0.336364 0.2671319999999999
vt 0.381501 0.333333
vt 0.3 0.41333299999999995
vt 0.336364 0.41333299999999995
vt 0.336364 0.46666699999999994
vt 0.345455 0.46666699999999994
vt 0.336364 0.46666699999999994
vt 0.336364 0.41333299999999995
vt 0.290909 0.41333299999999995
vt 0.3 0.41333299999999995
vt 0.3 0.46666699999999994
vt 0.336364 0.4
vt 0.336364 0.41333299999999995
vt 0.3 0.41333299999999995
vt 0.3 0.48
vt 0.3 0.46666699999999994
vt 0.336364 0.46666699999999994
vt 0.39090899999999995 0.853333
vt 0.39090899999999995 0.8
vt 0.4000000000000001 0.8
vt 0.4000000000000001 0.853333
vt 0.4000000000000001 0.8
vt 0.409091 0.8
vt 0.38181799999999994 0.853333
vt 0.38181799999999994 0.8
vt 0.39090899999999995 0.8
vt 0.38181799999999994 0.8
vt 0.38181799999999994 0.786667
vt 0.39090899999999995 0.786667
vt 0.4000000000000001 0.8
vt 0.4000000000000001 0.786667
vt 0.409091 0.786667
vt 0.39090899999999995 0.8
vt 0.39090899999999995 0.786667
vt 0.4000000000000001 0.786667
vt 0.38181799999999994 0.786667
vt 0.38181799999999994 0.16000000000000003
vt 0.39090899999999995 0.16000000000000003
vt 0.4000000000000001 0.786667
vt 0.4000000000000001 0.16000000000000003
vt 0.409091 0.16000000000000003
vt 0.39090899999999995 0.786667
vt 0.39090899999999995 0.16000000000000003
vt 0.4000000000000001 0.16000000000000003
vt 0.163636 0.34666700000000006
vt 0.14545499999999997 0.933333
vt 0.14545499999999997 0.34666700000000006
vt 0.036364 0.34666700000000006
vt 0.018182 0.933333
vt 0.018182 0.34666700000000006
vt 0.181818 0.34666700000000006
vt 0.163636 0.933333
vt 0.163636 0.34666700000000006
vt 0.054545 0.34666700000000006
vt 0.036364 0.933333
vt 0.036364 0.34666700000000006
vt 0.20000000000000004 0.34666700000000006
vt 0.181818 0.933333
vt 0.181818 0.34666700000000006
vt 0.072727 0.34666700000000006
vt 0.054545 0.933333
vt 0.054545 0.34666700000000006
vt 0.218182 0.34666700000000006
vt 0.20000000000000004 0.933333
vt 0.20000000000000004 0.34666700000000006
vt 0.090909 0.34666700000000006
vt 0.072727 0.933333
vt 0.072727 0.34666700000000006
vt 0.236364 0.34666700000000006
vt 0.218182 0.933333
vt 0.218182 0.34666700000000006
vt 0.109091 0.34666700000000006
vt 0.090909 0.933333
vt 0.090909 0.34666700000000006
vt 0.254545 0.34666700000000006
vt 0.236364 0.933333
vt 0.236364 0.34666700000000006
vt 0.127273 0.34666700000000006
vt 0.109091 0.933333
vt 0.109091 0.34666700000000006
vt 0.272727 0.34666700000000006
vt 0.254545 0.933333
vt 0.254545 0.34666700000000006
vt 0.14545499999999997 0.34666700000000006
vt 0.127273 0.933333
vt 0.127273 0.34666700000000006
vt 0.018182 0.34666700000000006
vt 0 0.933333
vt 0 0.34666700000000006
vt 0.290909 0.34666700000000006
vt 0.272727 0.933333
vt 0.272727 0.34666700000000006
vt 0.236364 0.946667
vt 0.218182 1
vt 0.218182 0.946667
vt 0.109091 0.946667
vt 0.090909 1
vt 0.090909 0.946667
vt 0.254545 0.946667
vt 0.236364 1
vt 0.236364 0.946667
vt 0.127273 0.946667
vt 0.109091 1
vt 0.109091 0.946667
vt 0.272727 0.946667
vt 0.254545 1
vt 0.254545 0.946667
vt 0.14545499999999997 0.946667
vt 0.127273 1
vt 0.127273 0.946667
vt 0.018182 0.946667
vt 0 1
vt 0 0.946667
vt 0.290909 0.946667
vt 0.272727 1
vt 0.272727 0.946667
vt 0.163636 0.946667
vt 0.14545499999999997 1
vt 0.14545499999999997 0.946667
vt 0.036364 0.946667
vt 0.018182 1
vt 0.018182 0.946667
vt 0.181818 0.946667
vt 0.163636 1
vt 0.163636 0.946667
vt 0.054545 0.946667
vt 0.036364 1
vt 0.036364 0.946667
vt 0.20000000000000004 0.946667
vt 0.181818 1
vt 0.181818 0.946667
vt 0.072727 0.946667
vt 0.054545 1
vt 0.054545 0.946667
vt 0.218182 0.946667
vt 0.20000000000000004 1
vt 0.20000000000000004 0.946667
vt 0.090909 0.946667
vt 0.072727 1
vt 0.072727 0.946667
vt 0.163636 0.34666700000000006
vt 0.163636 0.933333
vt 0.14545499999999997 0.933333
vt 0.036364 0.34666700000000006
vt 0.036364 0.933333
vt 0.018182 0.933333
vt 0.181818 0.34666700000000006
vt 0.181818 0.933333
vt 0.163636 0.933333
vt 0.054545 0.34666700000000006
vt 0.054545 0.933333
vt 0.036364 0.933333
vt 0.20000000000000004 0.34666700000000006
vt 0.20000000000000004 0.933333
vt 0.181818 0.933333
vt 0.072727 0.34666700000000006
vt 0.072727 0.933333
vt 0.054545 0.933333
vt 0.218182 0.34666700000000006
vt 0.218182 0.933333
vt 0.20000000000000004 0.933333
vt 0.090909 0.34666700000000006
vt 0.090909 0.933333
vt 0.072727 0.933333
vt 0.236364 0.34666700000000006
vt 0.236364 0.933333
vt 0.218182 0.933333
vt 0.109091 0.34666700000000006
vt 0.109091 0.933333
vt 0.090909 0.933333
vt 0.254545 0.34666700000000006
vt 0.254545 0.933333
vt 0.236364 0.933333
vt 0.127273 0.34666700000000006
vt 0.127273 0.933333
vt 0.109091 0.933333
vt 0.272727 0.34666700000000006
vt 0.272727 0.933333
vt 0.254545 0.933333
vt 0.14545499999999997 0.34666700000000006
vt 0.14545499999999997 0.933333
vt 0.127273 0.933333
vt 0.018182 0.34666700000000006
vt 0.018182 0.933333
vt 0 0.933333
vt 0.290909 0.34666700000000006
vt 0.290909 0.933333
vt 0.272727 0.933333
vt 0.236364 0.946667
vt 0.236364 1
vt 0.218182 1
vt 0.109091 0.946667
vt 0.109091 1
vt 0.090909 1
vt 0.254545 0.946667
vt 0.254545 1
vt 0.236364 1
vt 0.127273 0.946667
vt 0.127273 1
vt 0.109091 1
vt 0.272727 0.946667
vt 0.272727 1
vt 0.254545 1
vt 0.14545499999999997 0.946667
vt 0.14545499999999997 1
vt 0.127273 1
vt 0.018182 0.946667
vt 0.018182 1
vt 0 1
vt 0.290909 0.946667
vt 0.290909 1
vt 0.272727 1
vt 0.163636 0.946667
vt 0.163636 1
vt 0.14545499999999997 1
vt 0.036364 0.946667
vt 0.036364 1
vt 0.018182 1
vt 0.181818 0.946667
vt 0.181818 1
vt 0.163636 1
vt 0.054545 0.946667
vt 0.054545 1
vt 0.036364 1
vt 0.20000000000000004 0.946667
vt 0.20000000000000004 1
vt 0.181818 1
vt 0.072727 0.946667
vt 0.072727 1
vt 0.054545 1
vt 0.218182 0.946667
vt 0.218182 1
vt 0.20000000000000004 1
vt 0.090909 0.946667
vt 0.090909 1
vt 0.072727 1
vn 0 -1 0
vn 0 -1 0
vn 1 0 0
vn 1 0 0
vn 1 0 0
vn 1 0 0
vn 0 -1 0
vn 0 -1 0
vn -1 0 0
vn -1 0 0
vn -1 0 0
vn -1 0 0
vn 0 0 1
vn 0 0 1
vn 0 0 1
vn 0 0 1
vn 0 0 -1
vn 0 0 -1
vn 0 0 -1
vn 0 0 -1
vn 0 1 0
vn 0 1 0
vn 0 1 0
vn 0 1 0
vn -1 0 0
vn 0 1 0
vn 1 0 0
vn 0 -1 0
vn 0 0 1
vn 0 1 0
vn 0 0 -1
vn 0 0 1
vn 0 0 -1
vn 1 0 0
vn 0 0 1
vn 0 -1 0
vn 0 1 0
vn 0 0 -1
vn 0 1 0
vn 1 0 0
vn 0 -1 0
vn 0 -1 0
vn -1 0 0
vn -1 0 0
vn 0 1 0
vn 0 0 1
vn 0 -1 0
vn 0 0 -1
vn 0 0 -1
vn -0.7071067811865476 0 -0.7071067811865476
vn 0 0.7071067811865476 -0.7071067811865476
vn 0.7071067811865476 0 -0.7071067811865476
vn 0 -0.7071067811865476 -0.7071067811865476
vn 0 0 -1
vn -1 0 0
vn 1 0 0
vn 0 -1 0
vn 0 1 0
vn -1 0 0
vn -0.7071067811865476 0 0.7071067811865476
vn -0.7071067811865476 0.7071067811865476 0
vn -0.7071067811865476 0 -0.7071067811865476
vn -0.7071067811865476 -0.7071067811865476 0
vn -1 0 0
vn 0 0 1
vn 0 0 -1
vn 0 -1 0
vn 0 1 0
vn 0 0 1
vn 0.7071067811865476 0 0.7071067811865476
vn 0 0.7071067811865476 0.7071067811865476
vn -0.7071067811865476 0 0.7071067811865476
vn 0 -0.7071067811865476 0.7071067811865476
vn 0 0 1
vn 1 0 0
vn -1 0 0
vn 0 -1 0
vn 0 1 0
vn 1 0 0
vn 0.7071067811865476 0 -0.7071067811865476
vn 0.7071067811865476 0.7071067811865476 0
vn 0.7071067811865476 0 0.7071067811865476
vn 0.7071067811865476 -0.7071067811865476 0
vn 1 0 0
vn 0 0 -1
vn 0 0 1
vn 0 -1 0
vn 0 1 0
vn 1 0 0
vn -1 0 0
vn 0 1 0
vn 0 1 0
vn 0 1 0
vn 0 1 0
vn 0 1 0
vn 0 1 0
vn 0 1 0
vn 0 1 0
vn 0 1 0
vn 0 1 0
vn 0 1 0
vn 0 1 0
vn 0 1 0
vn 0 1 0
vn 0 1 0
vn 0 1 0
vn 0 1 0
vn 0 1 0
vn 0 0 -1
vn 0 0 1
vn 1 0 0
vn -1 0 0
vn 0 1 0
vn 0 1 0
vn 0 1 0
vn 0 0.7071067811865476 -0.7071067811865476
vn 0 0.7071067811865476 -0.7071067811865476
vn 0 0.7071067811865476 -0.7071067811865476
vn 0 0 -1
vn 0 0 -1
vn 0 0 -1
vn 0 -1 0
vn 0 -1 0
vn 1 0 0
vn 1 0 0
vn 1 0 0
vn 1 0 0
vn 0 -1 0
vn 0 -1 0
vn -1 0 0
vn -1 0 0
vn -1 0 0
vn -1 0 0
vn 0 0 1
vn 0 0 1
vn 0 0 1
vn 0 0 1
vn 0 0 -1
vn 0 0 -1
vn 0 0 -1
vn 0 0 -1
vn 0 1 0
vn 0 1 0
vn 0 1 0
vn 0 1 0
vn -1 0 0
vn 0 1 0
vn 1 0 0
vn 0 -1 0
vn 0 0 1
vn 0 1 0
vn 0 0 -1
vn 0 0 1
vn 0 0 -1
vn 1 0 0
vn 0 0 1
vn 0 -1 0
vn 0 1 0
vn 0 0 -1
vn 0 1 0
vn 1 0 0
vn 0 -1 0
vn 0 -1 0
vn -1 0 0
vn -1 0 0
vn 0 1 0
vn 0 0 1
vn 0 -1 0
vn 0 0 -1
vn 0 0 -1
vn -0.7071067811865476 0 -0.7071067811865476
vn 0 0.7071067811865476 -0.7071067811865476
vn 0.7071067811865476 0 -0.7071067811865476
vn 0 -0.7071067811865476 -0.7071067811865476
vn 0 0 -1
vn -1 0 0
vn 1 0 0
vn 0 -1 0
vn 0 1 0
vn -1 0 0
vn -0.7071067811865476 0 0.7071067811865476
vn -0.7071067811865476 0.7071067811865476 0
vn -0.7071067811865476 0 -0.7071067811865476
vn -0.7071067811865476 -0.7071067811865476 0
vn -1 0 0
vn 0 0 1
vn 0 0 -1
vn 0 -1 0
vn 0 1 0
vn 0 0 1
vn 0.7071067811865476 0 0.7071067811865476
vn 0 0.7071067811865476 0.7071067811865476
vn -0.7071067811865476 0 0.7071067811865476
vn 0 -0.7071067811865476 0.7071067811865476
vn 0 0 1
vn 1 0 0
vn -1 0 0
vn 0 -1 0
vn 0 1 0
vn 1 0 0
vn 0.7071067811865476 0 -0.7071067811865476
vn 0.7071067811865476 0.7071067811865476 0
vn 0.7071067811865476 0 0.7071067811865476
vn 0.7071067811865476 -0.7071067811865476 0
vn 1 0 0
vn 0 0 -1
vn 0 0 1
vn 0 -1 0
vn 0 1 0
vn 1 0 0
vn -1 0 0
vn 0 1 0
vn 0 1 0
vn 0 1 0
vn 0 1 0
vn 0 1 0
vn 0 1 0
vn 0 1 0
vn 0 1 0
vn 0 1 0
vn 0 1 0
vn 0 1 0
vn 0 1 0
vn 0 1 0
vn 0 1 0
vn 0 1 0
vn 0 1 0
vn 0 1 0
vn 0 1 0
vn 0 1 0
vn 0 1 0
vn 0 1 0
vn 0 1 0
vn 0 1 0
vn 0 1 0
vn 0 1 0
vn 0 1 0
vn 0 1 0
vn 0 1 0
vn 0 1 0
vn 0 1 0
vn 0 0 -1
vn 0 0 1
vn 1 0 0
vn -1 0 0
vn 0 1 0
vn 0 1 0
vn 0 1 0
vn 0 0.7071067811865476 -0.7071067811865476
vn 0 0.7071067811865476 -0.7071067811865476
vn 0 0.7071067811865476 -0.7071067811865476
vn 0 0 -1
vn 0 0 -1
vn 0 0 -1
vn 0.19508954497447809 0 0.9807854349661048
vn -0.5555704933126808 0 -0.8314694383802117
vn 0.5555704933126808 0 0.8314694383802117
vn -0.8314694383802117 0 -0.5555704933126808
vn 0.8314694383802117 0 0.5555704933126808
vn -0.9807854349661048 0 -0.19508954497447809
vn 0.9807854349661048 0 0.19508954497447809
vn -0.9807854349661048 0 0.19508954497447809
vn 0.9807854349661048 0 -0.19508954497447809
vn -0.8314694383802117 0 0.5555704933126808
vn 0.8314694383802117 0 -0.5555704933126808
vn -0.5555704933126808 0 0.8314694383802117
vn 0.5555704933126808 0 -0.8314694383802117
vn -0.19508954497447809 0 0.9807854349661048
vn -0.19508954497447809 0 -0.9807854349661048
vn 0.19508954497447809 0 -0.9807854349661048
vn 0.9807848584335935 0 -0.19509244338875897
vn -0.8314706983588734 0 0.5555686076180039
vn 0.8314706983588734 0 -0.5555686076180039
vn -0.5555686076180039 0 0.8314706983588734
vn 0.555564819107977 0 -0.8314732297371461
vn -0.19509244338875897 0 0.9807848584335935
vn -0.19509244338875897 0 -0.9807848584335935
vn 0.19509401266768592 0 -0.9807845462797733
vn 0.19509401266768592 0 0.9807845462797733
vn -0.5555686076180039 0 -0.8314706983588734
vn 0.555564819107977 0 0.8314732297371461
vn -0.8314706983588734 0 -0.5555686076180039
vn 0.8314706983588734 0 0.5555686076180039
vn -0.9807848584335935 0 -0.19509244338875897
vn 0.9807848584335935 0 0.19509244338875897
vn -0.9807848584335935 0 0.19509244338875897
vn 0.19508954497447809 0 0.9807854349661048
vn -0.5555704933126808 0 -0.8314694383802117
vn 0.5555704933126808 0 0.8314694383802117
vn -0.8314694383802117 0 -0.5555704933126808
vn 0.8314694383802117 0 0.5555704933126808
vn -0.9807854349661048 0 -0.19508954497447809
vn 0.9807854349661048 0 0.19508954497447809
vn -0.9807854349661048 0 0.19508954497447809
vn 0.9807854349661048 0 -0.19508954497447809
vn -0.8314694383802117 0 0.5555704933126808
vn 0.8314694383802117 0 -0.5555704933126808
vn -0.5555704933126808 0 0.8314694383802117
vn 0.5555704933126808 0 -0.8314694383802117
vn -0.19508954497447809 0 0.9807854349661048
vn -0.19508954497447809 0 -0.9807854349661048
vn 0.19508954497447809 0 -0.9807854349661048
vn 0.9807848584335935 0 -0.19509244338875897
vn -0.8314706983588734 0 0.5555686076180039
vn 0.8314706983588734 0 -0.5555686076180039
vn -0.5555686076180039 0 0.8314706983588734
vn 0.555564819107977 0 -0.8314732297371461
vn -0.19509244338875897 0 0.9807848584335935
vn -0.19509244338875897 0 -0.9807848584335935
vn 0.19509401266768592 0 -0.9807845462797733
vn 0.19509401266768592 0 0.9807845462797733
vn -0.5555686076180039 0 -0.8314706983588734
vn 0.555564819107977 0 0.8314732297371461
vn -0.8314706983588734 0 -0.5555686076180039
vn 0.8314706983588734 0 0.5555686076180039
vn -0.9807848584335935 0 -0.19509244338875897
vn 0.9807848584335935 0 0.19509244338875897
vn -0.9807848584335935 0 0.19509244338875897
usemtl m_22f1b1be-2ec9-09ea-8716-7a9cdba68949
f 1/1/1 2/2/1 3/3/1
f 2/4/2 4/5/2 3/6/2
f 5/7/3 6/8/3 4/9/3
f 7/10/4 5/11/4 8/12/4
f 6/13/5 3/14/5 4/15/5
f 9/16/6 8/17/6 3/18/6
f 4/19/7 10/20/7 11/21/7
f 11/22/8 12/23/8 1/24/8
f 13/25/9 14/26/9 11/27/9
f 15/28/10 1/29/10 16/30/10
f 17/31/11 16/32/11 14/33/11
f 1/34/12 13/35/12 11/36/12
f 18/37/13 3/38/13 8/39/13
f 19/40/14 16/41/14 1/42/14
f 3/43/15 19/44/15 1/45/15
f 20/46/16 8/47/16 16/48/16
f 21/49/17 14/50/17 5/51/17
f 22/52/18 11/53/18 14/54/18
f 4/55/19 21/56/19 5/57/19
f 11/58/20 23/59/20 4/60/20
f 24/61/21 5/62/21 14/63/21
f 25/64/22 8/65/22 5/66/22
f 26/67/23 14/68/23 16/69/23
f 27/70/24 16/71/24 8/72/24
f 28/73/25 21/74/25 23/75/25
f 29/76/26 23/77/26 30/78/26
f 22/79/27 29/80/27 30/81/27
f 31/82/28 22/83/28 21/84/28
f 24/85/29 32/86/29 25/87/29
f 33/88/30 34/89/30 35/90/30
f 27/91/31 35/92/31 26/93/31
f 36/94/32 37/95/32 10/96/32
f 12/97/33 38/98/33 2/99/33
f 10/100/34 39/101/34 12/102/34
f 29/103/35 17/104/35 13/105/35
f 40/106/36 15/107/36 17/108/36
f 41/109/37 13/110/37 42/111/37
f 43/112/38 42/113/38 15/114/38
f 44/115/39 19/116/39 45/117/39
f 19/118/40 43/119/40 20/120/40
f 46/121/41 39/122/41 37/123/41
f 43/124/42 18/125/42 20/126/42
f 2/127/43 46/128/43 36/129/43
f 18/130/44 44/131/44 45/132/44
f 28/133/45 9/134/45 6/135/45
f 47/136/46 28/137/46 6/138/46
f 48/139/47 47/140/47 7/141/47
f 44/142/48 7/143/48 9/144/48
f 49/145/49 50/146/49 51/147/49
f 52/148/50 49/149/50 51/150/50
f 49/151/51 53/152/51 54/153/51
f 54/154/52 55/155/52 50/156/52
f 50/157/53 52/158/53 51/159/53
f 56/160/54 57/161/54 58/162/54
f 59/163/55 58/164/55 60/165/55
f 61/166/56 62/167/56 63/168/56
f 60/169/57 57/170/57 61/171/57
f 63/172/58 56/173/58 59/174/58
f 64/175/59 65/176/59 66/177/59
f 67/178/60 64/179/60 66/180/60
f 64/181/61 68/182/61 69/183/61
f 69/184/62 70/185/62 65/186/62
f 65/187/63 67/188/63 66/189/63
f 71/190/64 72/191/64 73/192/64
f 74/193/65 73/194/65 75/195/65
f 76/196/66 77/197/66 78/198/66
f 75/199/67 72/200/67 76/201/67
f 78/202/68 71/203/68 74/204/68
f 79/205/69 80/206/69 81/207/69
f 82/208/70 79/209/70 81/210/70
f 79/211/71 83/212/71 84/213/71
f 84/214/72 85/215/72 80/216/72
f 80/217/73 82/218/73 81/219/73
f 86/220/74 87/221/74 88/222/74
f 89/223/75 88/224/75 90/225/75
f 91/226/76 92/227/76 93/228/76
f 90/229/77 87/230/77 91/231/77
f 93/232/78 86/233/78 89/234/78
f 94/235/79 95/236/79 96/237/79
f 97/238/80 94/239/80 96/240/80
f 94/241/81 98/242/81 99/243/81
f 99/244/82 100/245/82 95/246/82
f 95/247/83 97/248/83 96/249/83
f 101/250/84 102/251/84 103/252/84
f 104/253/85 103/254/85 105/255/85
f 106/256/86 107/257/86 108/258/86
f 105/259/87 102/260/87 106/261/87
f 108/262/88 101/263/88 104/264/88
f 26/265/89 34/266/89 24/267/89
f 25/268/90 33/269/90 27/270/90
f 109/271/91 110/272/91 111/273/91
f 112/274/92 110/275/92 113/276/92
f 114/277/93 115/278/93 112/279/93
f 116/280/94 117/281/94 114/282/94
f 118/283/95 119/284/95 116/285/95
f 118/286/96 120/287/96 121/288/96
f 122/289/97 123/290/97 120/291/97
f 124/292/98 125/293/98 123/294/98
f 126/295/99 127/296/99 125/297/99
f 128/298/100 129/299/100 127/300/100
f 130/301/101 131/302/101 129/303/101
f 132/304/102 133/305/102 131/306/102
f 134/307/103 135/308/103 133/309/103
f 136/310/104 135/311/104 137/312/104
f 138/313/105 139/314/105 136/315/105
f 109/316/106 140/317/106 138/318/106
f 141/319/107 142/320/107 143/321/107
f 144/322/108 145/323/108 146/324/108
f 147/325/109 148/326/109 149/327/109
f 150/328/110 146/329/110 151/330/110
f 149/331/111 144/332/111 150/333/111
f 151/334/112 145/335/112 147/336/112
f 152/337/113 153/338/113 154/339/113
f 155/340/114 156/341/114 157/342/114
f 158/343/115 159/344/115 160/345/115
f 161/346/116 162/347/116 159/348/116
f 163/349/117 164/350/117 156/351/117
f 165/352/118 166/353/118 153/354/118
f 167/355/119 168/356/119 162/357/119
f 169/358/120 170/359/120 164/360/120
f 171/361/121 172/362/121 166/363/121
f 1/364/122 12/365/122 2/366/122
f 2/367/123 36/368/123 4/369/123
f 5/370/124 47/371/124 6/372/124
f 7/373/125 47/374/125 5/375/125
f 6/376/126 9/377/126 3/378/126
f 9/379/127 7/380/127 8/381/127
f 4/382/128 36/383/128 10/384/128
f 11/385/129 10/386/129 12/387/129
f 13/388/130 17/389/130 14/390/130
f 15/391/131 42/392/131 1/393/131
f 17/394/132 15/395/132 16/396/132
f 1/397/133 42/398/133 13/399/133
f 18/400/134 45/401/134 3/402/134
f 19/403/135 20/404/135 16/405/135
f 3/406/136 45/407/136 19/408/136
f 20/409/137 18/410/137 8/411/137
f 21/412/138 22/413/138 14/414/138
f 22/415/139 30/416/139 11/417/139
f 4/418/140 23/419/140 21/420/140
f 11/421/141 30/422/141 23/423/141
f 24/424/142 25/425/142 5/426/142
f 25/427/143 27/428/143 8/429/143
f 26/430/144 24/431/144 14/432/144
f 27/433/145 26/434/145 16/435/145
f 28/436/146 31/437/146 21/438/146
f 29/439/147 28/440/147 23/441/147
f 22/442/148 40/443/148 29/444/148
f 31/445/149 40/446/149 22/447/149
f 24/448/150 34/449/150 32/450/150
f 33/451/151 32/452/151 34/453/151
f 27/454/152 33/455/152 35/456/152
f 36/457/153 46/458/153 37/459/153
f 12/460/154 39/461/154 38/462/154
f 10/463/155 37/464/155 39/465/155
f 29/466/156 40/467/156 17/468/156
f 40/469/157 43/470/157 15/471/157
f 41/472/158 29/473/158 13/474/158
f 43/475/159 41/476/159 42/477/159
f 44/478/160 41/479/160 19/480/160
f 19/481/161 41/482/161 43/483/161
f 46/484/162 38/485/162 39/486/162
f 43/487/163 48/488/163 18/489/163
f 2/490/164 38/491/164 46/492/164
f 18/493/165 48/494/165 44/495/165
f 28/496/166 44/497/166 9/498/166
f 47/499/167 31/500/167 28/501/167
f 48/502/168 31/503/168 47/504/168
f 44/505/169 48/506/169 7/507/169
f 49/508/170 54/509/170 50/510/170
f 52/511/171 173/512/171 49/513/171
f 49/514/172 173/515/172 53/516/172
f 54/517/173 53/518/173 55/519/173
f 50/520/174 55/521/174 52/522/174
f 56/523/175 62/524/175 57/525/175
f 59/526/176 56/527/176 58/528/176
f 61/529/177 57/530/177 62/531/177
f 60/532/178 58/533/178 57/534/178
f 63/535/179 62/536/179 56/537/179
f 64/538/180 69/539/180 65/540/180
f 67/541/181 174/542/181 64/543/181
f 64/544/182 174/545/182 68/546/182
f 69/547/183 68/548/183 70/549/183
f 65/550/184 70/551/184 67/552/184
f 71/553/185 77/554/185 72/555/185
f 74/556/186 71/557/186 73/558/186
f 76/559/187 72/560/187 77/561/187
f 75/562/188 73/563/188 72/564/188
f 78/565/189 77/566/189 71/567/189
f 79/568/190 84/569/190 80/570/190
f 82/571/191 175/572/191 79/573/191
f 79/574/192 175/575/192 83/576/192
f 84/577/193 83/578/193 85/579/193
f 80/580/194 85/581/194 82/582/194
f 86/583/195 92/584/195 87/585/195
f 89/586/196 86/587/196 88/588/196
f 91/589/197 87/590/197 92/591/197
f 90/592/198 88/593/198 87/594/198
f 93/595/199 92/596/199 86/597/199
f 94/598/200 99/599/200 95/600/200
f 97/601/201 176/602/201 94/603/201
f 94/604/202 176/605/202 98/606/202
f 99/607/203 98/608/203 100/609/203
f 95/610/204 100/611/204 97/612/204
f 101/613/205 107/614/205 102/615/205
f 104/616/206 101/617/206 103/618/206
f 106/619/207 102/620/207 107/621/207
f 105/622/208 103/623/208 102/624/208
f 108/625/209 107/626/209 101/627/209
f 26/628/210 35/629/210 34/630/210
f 25/631/211 32/632/211 33/633/211
f 109/634/212 113/635/212 110/636/212
f 112/637/213 115/638/213 110/639/213
f 114/640/214 117/641/214 115/642/214
f 116/643/215 119/644/215 117/645/215
f 118/646/216 121/647/216 119/648/216
f 118/649/217 122/650/217 120/651/217
f 122/652/218 124/653/218 123/654/218
f 124/655/219 126/656/219 125/657/219
f 126/658/220 128/659/220 127/660/220
f 128/661/221 130/662/221 129/663/221
f 130/664/222 132/665/222 131/666/222
f 132/667/223 134/668/223 133/669/223
f 134/670/224 137/671/224 135/672/224
f 136/673/225 139/674/225 135/675/225
f 138/676/226 140/677/226 139/678/226
f 109/679/227 111/680/227 140/681/227
f 143/682/228 177/683/228 178/684/228
f 177/685/229 179/686/229 178/687/229
f 179/688/230 180/689/230 178/690/230
f 178/691/231 181/692/231 182/693/231
f 182/694/232 183/695/232 184/696/232
f 184/697/233 185/698/233 186/699/233
f 186/700/234 187/701/234 141/702/234
f 141/703/235 188/704/235 142/705/235
f 142/706/236 189/707/236 143/708/236
f 178/709/237 182/710/237 143/711/237
f 182/712/238 184/713/238 143/714/238
f 184/715/239 186/716/239 143/717/239
f 186/718/240 141/719/240 143/720/240
f 144/721/241 148/722/241 145/723/241
f 147/724/242 145/725/242 148/726/242
f 150/727/243 144/728/243 146/729/243
f 149/730/244 148/731/244 144/732/244
f 151/733/245 146/734/245 145/735/245
f 152/736/246 165/737/246 153/738/246
f 155/739/247 163/740/247 156/741/247
f 158/742/248 161/743/248 159/744/248
f 161/745/249 167/746/249 162/747/249
f 163/748/250 169/749/250 164/750/250
f 165/751/251 171/752/251 166/753/251
f 167/754/252 190/755/252 168/756/252
f 169/757/253 191/758/253 170/759/253
f 171/760/254 192/761/254 172/762/254
f 193/763/255 194/764/255 195/765/255
f 196/766/256 197/767/256 198/768/256
f 199/769/257 200/770/257 193/771/257
f 201/772/258 202/773/258 196/774/258
f 203/775/259 204/776/259 199/777/259
f 205/778/260 206/779/260 201/780/260
f 207/781/261 208/782/261 203/783/261
f 209/784/262 210/785/262 205/786/262
f 211/787/263 212/788/263 207/789/263
f 213/790/264 214/791/264 209/792/264
f 215/793/265 216/794/265 211/795/265
f 217/796/266 218/797/266 213/798/266
f 219/799/267 220/800/267 215/801/267
f 195/802/268 221/803/268 217/804/268
f 198/805/269 222/806/269 223/807/269
f 223/808/270 224/809/270 219/810/270
f 225/811/271 226/812/271 227/813/271
f 228/814/272 229/815/272 230/816/272
f 231/817/273 232/818/273 225/819/273
f 233/820/274 234/821/274 228/822/274
f 235/823/275 236/824/275 231/825/275
f 237/826/276 238/827/276 233/828/276
f 239/829/277 240/830/277 241/831/277
f 241/832/278 242/833/278 235/834/278
f 243/835/279 244/836/279 237/837/279
f 245/838/280 246/839/280 239/840/280
f 247/841/281 248/842/281 243/843/281
f 249/844/282 250/845/282 245/846/282
f 251/847/283 252/848/283 247/849/283
f 253/850/284 254/851/284 249/852/284
f 227/853/285 255/854/285 251/855/285
f 230/856/286 256/857/286 253/858/286
f 193/859/287 200/860/287 194/861/287
f 196/862/288 202/863/288 197/864/288
f 199/865/289 204/866/289 200/867/289
f 201/868/290 206/869/290 202/870/290
f 203/871/291 208/872/291 204/873/291
f 205/874/292 210/875/292 206/876/292
f 207/877/293 212/878/293 208/879/293
f 209/880/294 214/881/294 210/882/294
f 211/883/295 216/884/295 212/885/295
f 213/886/296 218/887/296 214/888/296
f 215/889/297 220/890/297 216/891/297
f 217/892/298 221/893/298 218/894/298
f 219/895/299 224/896/299 220/897/299
f 195/898/300 194/899/300 221/900/300
f 198/901/301 197/902/301 222/903/301
f 223/904/302 222/905/302 224/906/302
f 225/907/303 232/908/303 226/909/303
f 228/910/304 234/911/304 229/912/304
f 231/913/305 236/914/305 232/915/305
f 233/916/306 238/917/306 234/918/306
f 235/919/307 242/920/307 236/921/307
f 237/922/308 244/923/308 238/924/308
f 239/925/309 246/926/309 240/927/309
f 241/928/310 240/929/310 242/930/310
f 243/931/311 248/932/311 244/933/311
f 245/934/312 250/935/312 246/936/312
f 247/937/313 252/938/313 248/939/313
f 249/940/314 254/941/314 250/942/314
f 251/943/315 255/944/315 252/945/315
f 253/946/316 256/947/316 254/948/316
f 227/949/317 226/950/317 255/951/317
f 230/952/318 229/953/318 256/954/318