# Blender 4.0.2
# www.blender.org
o Body
v 0.25 0.75 0.45
v 0.5 1 -0.5
v -0.166667 1 -0.5
v -0.166667 1 0.5
v -0.5 0 -0.5
v 0.5 0 -0.5
v 0.5 0 0.5
v -0.5 1 0.5
v -0.5 2 0.5
v -0.5 2 -0.5
v -0.166667 2 -0.5
v 0.5 2 -0.5
v 0.5 2 0.5
v -0.5 1 -0.5
v -0.166667 2 0.5
v 0.5 2.175 -0.325
v 0.5 2.175 0.325
v 0.5 3 -0.5
v -0.166667 3 -0.5
v -0.166667 3 0.5
v -0.166667 2.5 -0.5
v -0.166667 2.5 0.5
v 0.5 3 0.5
v -0.5 0.65625 -0.15625
v -0.5 0.34375 -0.15625
v -0.5 0.34375 0.15625
v 0.15625 0.65625 -0.5
v 0.15625 0.34375 -0.5
v -0.15625 0.34375 -0.5
v 0.5 0.65625 0.15625
v 0.5 0.34375 0.15625
v 0.5 0.34375 -0.15625
v -0.15625 0.65625 0.5
v -0.15625 0.34375 0.5
v 0.15625 0.34375 0.5
v 0.5 0.75 0.25
v 0.5 0.75 -0.25
v 0.5 0.25 0.25
v 0.5 1 0.5
v 0.25 0.75 0.5
v 0.25 0.25 0.5
v -0.25 0.25 0.5
v -0.5 0 0.5
v -0.25 0.75 0.5
v -0.5 0.75 0.25
v -0.5 0.25 -0.25
v -0.5 0.75 -0.25
v 0.25 0.75 -0.5
v -0.25 0.75 -0.5
v -0.25 0.25 -0.5
v 0.25 0.25 -0.5
v 0.25 0.25 0.45
v -0.15625 0.65625 0.45
v -0.15625 0.34375 0.45
v -0.25 0.25 0.45
v -0.25 0.75 0.45
v 0.5 0.25 -0.25
v 0.45 0.25 -0.25
v 0.45 0.25 0.25
v 0.45 0.75 0.25
v 0.45 0.75 -0.25
v 0.5 0.65625 -0.15625
v 0.45 0.65625 -0.15625
v 0.45 0.65625 0.15625
v 0.45 0.34375 0.15625
v 0.45 0.34375 -0.15625
v -0.15625 0.34375 -0.45
v -0.15625 0.65625 -0.45
v 0.15625 0.65625 -0.45
v 0.15625 0.34375 -0.45
v 0.25 0.75 -0.45
v -0.25 0.75 -0.45
v -0.25 0.25 -0.45
v 0.25 0.25 -0.45
v -0.5 0.65625 0.15625
v -0.45 0.65625 0.15625
v -0.45 0.65625 -0.15625
v -0.45 0.34375 -0.15625
v -0.45 0.34375 0.15625
v -0.45 0.75 0.25
v -0.45 0.25 0.25
v -0.45 0.25 -0.25
v -0.45 0.75 -0.25
v -0.15625 0.65625 -0.5
v -0.5 0.25 0.25
v 0.15625 0.65625 0.45
v 0.15625 0.65625 0.5
v 0.15625 0.34375 0.45
v 0.35 2.175 0.325
v 0.35 2.825 0.325
v 0.5 2.825 0.325
v 0.5 2.825 -0.325
v 0.4 2.825 -0.281667
v 0.4 2.175 -0.281667
v 0.35 2.175 -0.281667
v 0.35 2.825 -0.325
v 0.35 2.175 -0.325
v 0.45 2.825 -0.249167
v 0.45 2.175 -0.249167
v 0.45 2.825 -0.184167
v 0.4 2.175 -0.151667
v 0.4 2.825 -0.151667
v 0.35 2.825 -0.151667
v 0.4 2.825 0.151667
v 0.4 2.175 0.151667
v 0.35 2.175 0.151667
v 0.4 2.175 0.281667
v 0.4 2.825 0.281667
v 0.35 2.825 0.281667
v 0.4 2.825 -0.065
v 0.4 2.175 -0.065
v 0.35 2.175 -0.065
v 0.4 2.175 0.065
v 0.4 2.825 0.065
v 0.35 2.825 0.065
v 0.45 2.175 -0.184167
v 0.45 2.175 0.184167
v 0.45 2.825 0.184167
v 0.45 2.825 0.249167
v 0.45 2.175 0.249167
v 0.45 2.175 -0.0325
v 0.45 2.825 -0.0325
v 0.45 2.825 0.0325
v 0.45 2.175 0.0325
v 0.35 2.825 -0.281667
v 0.35 2.175 -0.151667
v 0.35 2.825 0.151667
v 0.35 2.175 0.281667
v 0.35 2.825 -0.065
v 0.35 2.175 0.065
vt 0.6354166666666666 0.53125
vt 0.6354166666666666 0.6458333333333333
vt 0.4791666666666667 0.6458333333333333
vt 0.4166666666666667 0.03125
vt 0.5833333333333334 0.03125
vt 0.5833333333333334 0.19791666666666663
vt 0.3854166666666667 0.53125
vt 0.3854166666666667 0.6979166666666667
vt 0.21875 0.6979166666666667
vt 0.28125 0.03125
vt 0.28125 0.14583333333333337
vt 0.11458333333333333 0.14583333333333337
vt 0.21875 0.53125
vt 0.21875 0.6979166666666667
vt 0.16666666666666666 0.6979166666666667
vt 0.4375 0.53125
vt 0.4375 0.6979166666666667
vt 0.3854166666666667 0.6979166666666667
vt 0.16666666666666666 0.53125
vt 0.16666666666666666 0.6979166666666667
vt 0 0.6979166666666667
vt 0.28125 0.14583333333333337
vt 0.25 0.17708333333333337
vt 0.14583333333333334 0.17708333333333337
vt 0.28125 0.3125
vt 0.28125 0.42708333333333337
vt 0.11458333333333333 0.42708333333333337
vt 0.16666666666666666 0.6979166666666667
vt 0.21875 0.6979166666666667
vt 0.16666666666666666 0.78125
vt 0.3958333333333333 0.22916666666666663
vt 0.28125 0.3125
vt 0.28125 0.14583333333333337
vt 0.28125 0.42708333333333337
vt 0.28125 0.5104166666666667
vt 0.11458333333333333 0.5104166666666667
vt 0.21875 0.8020833333333334
vt 0.21875 0.6979166666666667
vt 0.3854166666666667 0.6979166666666667
vt 0.3854166666666667 0.6979166666666667
vt 0.4375 0.6979166666666667
vt 0.4375 0.78125
vt 0.11458333333333333 0.3125
vt 0 0.3125
vt 0 0.22916666666666663
vt 0.8125 0.5416666666666667
vt 0.8125 0.59375
vt 0.7604166666666666 0.59375
vt 0.8020833333333334 0.38541666666666663
vt 0.8020833333333334 0.4375
vt 0.75 0.4375
vt 0.4270833333333333 0.47916666666666663
vt 0.4270833333333333 0.42708333333333337
vt 0.4791666666666667 0.42708333333333337
vt 0.7604166666666666 0.09375
vt 0.7604166666666666 0.04166666666666663
vt 0.8125 0.04166666666666663
vt 0.20833333333333334 0.9583333333333334
vt 0.2916666666666667 0.9583333333333334
vt 0.3333333333333333 1
vt 0.20833333333333334 0.875
vt 0.16666666666666666 0.8333333333333334
vt 0.3333333333333333 0.8333333333333334
vt 0.20833333333333334 0.9583333333333334
vt 0.16666666666666666 1
vt 0.16666666666666666 0.8333333333333334
vt 0.125 0.9583333333333334
vt 0.16666666666666666 1
vt 0.052083333333333336 1
vt 0.16666666666666666 0.8333333333333334
vt 0.16666666666666666 1
vt 0.125 0.9583333333333334
vt 0.125 0.875
vt 0.041666666666666664 0.875
vt 0 0.8333333333333334
vt 0.041666666666666664 0.9583333333333334
vt 0 1
vt 0 0.8333333333333334
vt 0.625 0.9583333333333334
vt 0.6666666666666666 1
vt 0.5 1
vt 0.5416666666666666 0.875
vt 0.5 0.8333333333333334
vt 0.6666666666666666 0.8333333333333334
vt 0.6666666666666666 0.8333333333333334
vt 0.6666666666666666 1
vt 0.625 0.9583333333333334
vt 0.5416666666666666 0.9583333333333334
vt 0.5 1
vt 0.5 0.8333333333333334
vt 0.4479166666666667 1
vt 0.375 0.9583333333333334
vt 0.4583333333333333 0.9583333333333334
vt 0.5 0.8333333333333334
vt 0.5 1
vt 0.4583333333333333 0.9583333333333334
vt 0.4583333333333333 0.875
vt 0.375 0.875
vt 0.3333333333333333 0.8333333333333334
vt 0.375 0.9583333333333334
vt 0.3333333333333333 1
vt 0.3333333333333333 0.8333333333333334
vt 0.3333333333333333 0.8333333333333334
vt 0.3333333333333333 1
vt 0.2916666666666667 0.9583333333333334
vt 0.71875 0.125
vt 0.7083333333333334 0.125
vt 0.7083333333333334 0.04166666666666663
vt 0.7604166666666666 0.09375
vt 0.75 0.09375
vt 0.75 0.04166666666666663
vt 0.7083333333333334 0.03125
vt 0.7083333333333334 0.04166666666666663
vt 0.625 0.04166666666666663
vt 0.6145833333333334 0.04166666666666663
vt 0.625 0.04166666666666663
vt 0.625 0.125
vt 0.7083333333333334 0.22916666666666663
vt 0.7083333333333334 0.23958333333333337
vt 0.625 0.23958333333333337
vt 0.625 0.33333333333333337
vt 0.625 0.32291666666666663
vt 0.7083333333333334 0.32291666666666663
vt 0.4791666666666667 0.47916666666666663
vt 0.4791666666666667 0.48958333333333337
vt 0.4270833333333333 0.48958333333333337
vt 0.4270833333333333 0.42708333333333337
vt 0.4270833333333333 0.41666666666666663
vt 0.4791666666666667 0.41666666666666663
vt 0.75 0.4375
vt 0.7395833333333334 0.4375
vt 0.7395833333333334 0.38541666666666663
vt 0.8020833333333334 0.38541666666666663
vt 0.8125 0.38541666666666663
vt 0.8125 0.4375
vt 0.4791666666666667 0.6875
vt 0.4895833333333333 0.6875
vt 0.4895833333333333 0.7708333333333334
vt 0.5833333333333334 0.7708333333333334
vt 0.5729166666666666 0.7708333333333334
vt 0.5729166666666666 0.6875
vt 0.7604166666666666 0.5416666666666667
vt 0.7604166666666666 0.53125
vt 0.8125 0.53125
vt 0.8125 0.59375
vt 0.8125 0.6041666666666667
vt 0.7604166666666666 0.6041666666666667
vt 0.6145833333333334 0.375
vt 0.625 0.375
vt 0.625 0.45833333333333337
vt 0.71875 0.45833333333333337
vt 0.7083333333333334 0.45833333333333337
vt 0.7083333333333334 0.375
vt 0.6979166666666666 0.3125
vt 0.7083333333333334 0.32291666666666663
vt 0.625 0.32291666666666663
vt 0.6354166666666666 0.25
vt 0.6354166666666666 0.3125
vt 0.625 0.32291666666666663
vt 0.6979166666666666 0.25
vt 0.6354166666666666 0.25
vt 0.625 0.23958333333333337
vt 0.7083333333333334 0.32291666666666663
vt 0.6979166666666666 0.3125
vt 0.6979166666666666 0.25
vt 0.71875 0.32291666666666663
vt 0.7083333333333334 0.32291666666666663
vt 0.7083333333333334 0.23958333333333337
vt 0.4270833333333333 0.47916666666666663
vt 0.4166666666666667 0.47916666666666663
vt 0.4166666666666667 0.42708333333333337
vt 0.4791666666666667 0.42708333333333337
vt 0.4895833333333333 0.42708333333333337
vt 0.4895833333333333 0.47916666666666663
vt 0.6145833333333334 0.23958333333333337
vt 0.625 0.23958333333333337
vt 0.625 0.32291666666666663
vt 0.5 0.7604166666666666
vt 0.4895833333333333 0.7708333333333334
vt 0.4895833333333333 0.6875
vt 0.5 0.6979166666666667
vt 0.4895833333333333 0.6875
vt 0.5729166666666666 0.6875
vt 0.5625 0.6979166666666667
vt 0.5729166666666666 0.6875
vt 0.5729166666666666 0.7708333333333334
vt 0.5729166666666666 0.7708333333333334
vt 0.4895833333333333 0.7708333333333334
vt 0.5 0.7604166666666666
vt 0.5729166666666666 0.6770833333333333
vt 0.5729166666666666 0.6875
vt 0.4895833333333333 0.6875
vt 0.4895833333333333 0.78125
vt 0.4895833333333333 0.7708333333333334
vt 0.5729166666666666 0.7708333333333334
vt 0.8020833333333334 0.4375
vt 0.8020833333333334 0.44791666666666663
vt 0.75 0.44791666666666663
vt 0.75 0.38541666666666663
vt 0.75 0.375
vt 0.8020833333333334 0.375
vt 0.6979166666666666 0.38541666666666663
vt 0.6354166666666666 0.38541666666666663
vt 0.625 0.375
vt 0.6979166666666666 0.44791666666666663
vt 0.6979166666666666 0.38541666666666663
vt 0.7083333333333334 0.375
vt 0.6354166666666666 0.44791666666666663
vt 0.6979166666666666 0.44791666666666663
vt 0.7083333333333334 0.45833333333333337
vt 0.6354166666666666 0.38541666666666663
vt 0.6354166666666666 0.44791666666666663
vt 0.625 0.45833333333333337
vt 0.625 0.46875
vt 0.625 0.45833333333333337
vt 0.7083333333333334 0.45833333333333337
vt 0.7083333333333334 0.36458333333333337
vt 0.7083333333333334 0.375
vt 0.625 0.375
vt 0.8125 0.5416666666666667
vt 0.8229166666666666 0.5416666666666667
vt 0.8229166666666666 0.59375
vt 0.7604166666666666 0.59375
vt 0.75 0.59375
vt 0.75 0.5416666666666667
vt 0.6979166666666666 0.11458333333333337
vt 0.7083333333333334 0.125
vt 0.625 0.125
vt 0.7083333333333334 0.04166666666666663
vt 0.7083333333333334 0.125
vt 0.6979166666666666 0.11458333333333337
vt 0.6354166666666666 0.05208333333333337
vt 0.625 0.04166666666666663
vt 0.7083333333333334 0.04166666666666663
vt 0.625 0.125
vt 0.625 0.04166666666666663
vt 0.6354166666666666 0.05208333333333337
vt 0.8125 0.09375
vt 0.8125 0.10416666666666663
vt 0.7604166666666666 0.10416666666666663
vt 0.8125 0.04166666666666663
vt 0.8229166666666666 0.04166666666666663
vt 0.8229166666666666 0.09375
vt 0.625 0.13541666666666663
vt 0.625 0.125
vt 0.7083333333333334 0.125
vt 0.7604166666666666 0.04166666666666663
vt 0.7604166666666666 0.03125
vt 0.8125 0.03125
vt 0.4166666666666667 0.26041666666666663
vt 0.4479166666666667 0.26041666666666663
vt 0.4479166666666667 0.36458333333333337
vt 0.11458333333333333 0.14583333333333337
vt 0.14583333333333334 0.17708333333333337
vt 0.14583333333333334 0.28125
vt 0.11458333333333333 0.3125
vt 0.14583333333333334 0.28125
vt 0.25 0.28125
vt 0.28125 0.3125
vt 0.25 0.28125
vt 0.25 0.17708333333333337
vt 0.7083333333333334 0.6458333333333333
vt 0.7083333333333334 0.53125
vt 0.71875 0.53125
vt 0.5833333333333334 0.36458333333333337
vt 0.5520833333333334 0.36458333333333337
vt 0.5520833333333334 0.26041666666666663
vt 0.6979166666666666 0.6458333333333333
vt 0.6979166666666666 0.53125
vt 0.7083333333333334 0.53125
vt 0.5520833333333334 0.26041666666666663
vt 0.4479166666666667 0.26041666666666663
vt 0.4479166666666667 0.22916666666666663
vt 0.6979166666666666 0.53125
vt 0.6979166666666666 0.6458333333333333
vt 0.6875 0.6458333333333333
vt 0.6770833333333334 0.53125
vt 0.6770833333333334 0.6458333333333333
vt 0.6666666666666666 0.6458333333333333
vt 0.78125 0.34375
vt 0.78125 0.22916666666666663
vt 0.7916666666666666 0.22916666666666663
vt 0.75 0.22916666666666663
vt 0.75 0.34375
vt 0.7395833333333334 0.34375
vt 0.7083333333333334 0.78125
vt 0.7083333333333334 0.6770833333333333
vt 0.71875 0.6770833333333333
vt 0.6770833333333334 0.6770833333333333
vt 0.6770833333333334 0.78125
vt 0.6666666666666666 0.78125
vt 0.6875 0.53125
vt 0.6875 0.6458333333333333
vt 0.6770833333333334 0.6458333333333333
vt 0.7708333333333334 0.22916666666666663
vt 0.7708333333333334 0.34375
vt 0.7604166666666666 0.34375
vt 0.7708333333333334 0.34375
vt 0.7708333333333334 0.22916666666666663
vt 0.78125 0.22916666666666663
vt 0.7604166666666666 0.22916666666666663
vt 0.7604166666666666 0.34375
vt 0.75 0.34375
vt 0.6979166666666666 0.6770833333333333
vt 0.6979166666666666 0.78125
vt 0.6875 0.78125
vt 0.6979166666666666 0.78125
vt 0.6979166666666666 0.6770833333333333
vt 0.7083333333333334 0.6770833333333333
vt 0.6875 0.6770833333333333
vt 0.6875 0.78125
vt 0.6770833333333334 0.78125
vt 0.4479166666666667 0.39583333333333337
vt 0.4479166666666667 0.36458333333333337
vt 0.5520833333333334 0.36458333333333337
vt 0.4479166666666667 0.36458333333333337
vt 0.4479166666666667 0.26041666666666663
vt 0.5520833333333334 0.26041666666666663
vt 0.4791666666666667 0.53125
vt 0.6354166666666666 0.53125
vt 0.4791666666666667 0.6458333333333333
vt 0.4166666666666667 0.19791666666666663
vt 0.4166666666666667 0.03125
vt 0.5833333333333334 0.19791666666666663
vt 0.21875 0.53125
vt 0.3854166666666667 0.53125
vt 0.21875 0.6979166666666667
vt 0.11458333333333333 0.03125
vt 0.28125 0.03125
vt 0.11458333333333333 0.14583333333333337
vt 0.16666666666666666 0.53125
vt 0.21875 0.53125
vt 0.16666666666666666 0.6979166666666667
vt 0.3854166666666667 0.53125
vt 0.4375 0.53125
vt 0.3854166666666667 0.6979166666666667
vt 0 0.53125
vt 0.16666666666666666 0.53125
vt 0 0.6979166666666667
vt 0.11458333333333333 0.14583333333333337
vt 0.28125 0.14583333333333337
vt 0.14583333333333334 0.17708333333333337
vt 0.11458333333333333 0.3125
vt 0.28125 0.3125
vt 0.11458333333333333 0.42708333333333337
vt 0.28125 0.14583333333333337
vt 0.3958333333333333 0.14583333333333337
vt 0.3958333333333333 0.22916666666666663
vt 0.3958333333333333 0.22916666666666663
vt 0.3958333333333333 0.3125
vt 0.28125 0.3125
vt 0.11458333333333333 0.42708333333333337
vt 0.28125 0.42708333333333337
vt 0.11458333333333333 0.5104166666666667
vt 0.3854166666666667 0.8020833333333334
vt 0.21875 0.8020833333333334
vt 0.3854166666666667 0.6979166666666667
vt 0 0.22916666666666663
vt 0 0.14583333333333337
vt 0.11458333333333333 0.14583333333333337
vt 0.11458333333333333 0.14583333333333337
vt 0.11458333333333333 0.3125
vt 0 0.22916666666666663
vt 0.7604166666666666 0.5416666666666667
vt 0.8125 0.5416666666666667
vt 0.7604166666666666 0.59375
vt 0.75 0.38541666666666663
vt 0.8020833333333334 0.38541666666666663
vt 0.75 0.4375
vt 0.4791666666666667 0.47916666666666663
vt 0.4270833333333333 0.47916666666666663
vt 0.4791666666666667 0.42708333333333337
vt 0.8125 0.09375
vt 0.7604166666666666 0.09375
vt 0.8125 0.04166666666666663
vt 0.16666666666666666 1
vt 0.20833333333333334 0.9583333333333334
vt 0.3333333333333333 1
vt 0.2916666666666667 0.875
vt 0.20833333333333334 0.875
vt 0.3333333333333333 0.8333333333333334
vt 0.20833333333333334 0.875
vt 0.20833333333333334 0.9583333333333334
vt 0.16666666666666666 0.8333333333333334
vt 0.052083333333333336 1
vt 0 1
vt 0.041666666666666664 0.9583333333333334
vt 0.041666666666666664 0.9583333333333334
vt 0.125 0.9583333333333334
vt 0.052083333333333336 1
vt 0.125 0.875
vt 0.16666666666666666 0.8333333333333334
vt 0.125 0.9583333333333334
vt 0.16666666666666666 0.8333333333333334
vt 0.125 0.875
vt 0 0.8333333333333334
vt 0.041666666666666664 0.875
vt 0.041666666666666664 0.9583333333333334
vt 0 0.8333333333333334
vt 0.5416666666666666 0.9583333333333334
vt 0.625 0.9583333333333334
vt 0.5 1
vt 0.625 0.875
vt 0.5416666666666666 0.875
vt 0.6666666666666666 0.8333333333333334
vt 0.625 0.875
vt 0.6666666666666666 0.8333333333333334
vt 0.625 0.9583333333333334
vt 0.5416666666666666 0.875
vt 0.5416666666666666 0.9583333333333334
vt 0.5 0.8333333333333334
vt 0.4583333333333333 0.9583333333333334
vt 0.5 1
vt 0.4479166666666667 1
vt 0.4479166666666667 1
vt 0.3333333333333333 1
vt 0.375 0.9583333333333334
vt 0.4583333333333333 0.875
vt 0.5 0.8333333333333334
vt 0.4583333333333333 0.9583333333333334
vt 0.5 0.8333333333333334
vt 0.4583333333333333 0.875
vt 0.3333333333333333 0.8333333333333334
vt 0.375 0.875
vt 0.375 0.9583333333333334
vt 0.3333333333333333 0.8333333333333334
vt 0.2916666666666667 0.875
vt 0.3333333333333333 0.8333333333333334
vt 0.2916666666666667 0.9583333333333334
vt 0.71875 0.04166666666666663
vt 0.71875 0.125
vt 0.7083333333333334 0.04166666666666663
vt 0.7604166666666666 0.04166666666666663
vt 0.7604166666666666 0.09375
vt 0.75 0.04166666666666663
vt 0.625 0.03125
vt 0.7083333333333334 0.03125
vt 0.625 0.04166666666666663
vt 0.6145833333333334 0.125
vt 0.6145833333333334 0.04166666666666663
vt 0.625 0.125
vt 0.625 0.22916666666666663
vt 0.7083333333333334 0.22916666666666663
vt 0.625 0.23958333333333337
vt 0.7083333333333334 0.33333333333333337
vt 0.625 0.33333333333333337
vt 0.7083333333333334 0.32291666666666663
vt 0.4270833333333333 0.47916666666666663
vt 0.4791666666666667 0.47916666666666663
vt 0.4270833333333333 0.48958333333333337
vt 0.4791666666666667 0.42708333333333337
vt 0.4270833333333333 0.42708333333333337
vt 0.4791666666666667 0.41666666666666663
vt 0.75 0.38541666666666663
vt 0.75 0.4375
vt 0.7395833333333334 0.38541666666666663
vt 0.8020833333333334 0.4375
vt 0.8020833333333334 0.38541666666666663
vt 0.8125 0.4375
vt 0.4791666666666667 0.7708333333333334
vt 0.4791666666666667 0.6875
vt 0.4895833333333333 0.7708333333333334
vt 0.5833333333333334 0.6875
vt 0.5833333333333334 0.7708333333333334
vt 0.5729166666666666 0.6875
vt 0.8125 0.5416666666666667
vt 0.7604166666666666 0.5416666666666667
vt 0.8125 0.53125
vt 0.7604166666666666 0.59375
vt 0.8125 0.59375
vt 0.7604166666666666 0.6041666666666667
vt 0.6145833333333334 0.45833333333333337
vt 0.6145833333333334 0.375
vt 0.625 0.45833333333333337
vt 0.71875 0.375
vt 0.71875 0.45833333333333337
vt 0.7083333333333334 0.375
vt 0.6354166666666666 0.3125
vt 0.6979166666666666 0.3125
vt 0.625 0.32291666666666663
vt 0.625 0.23958333333333337
vt 0.6354166666666666 0.25
vt 0.625 0.32291666666666663
vt 0.7083333333333334 0.23958333333333337
vt 0.6979166666666666 0.25
vt 0.625 0.23958333333333337
vt 0.7083333333333334 0.23958333333333337
vt 0.7083333333333334 0.32291666666666663
vt 0.6979166666666666 0.25
vt 0.71875 0.23958333333333337
vt 0.71875 0.32291666666666663
vt 0.7083333333333334 0.23958333333333337
vt 0.4270833333333333 0.42708333333333337
vt 0.4270833333333333 0.47916666666666663
vt 0.4166666666666667 0.42708333333333337
vt 0.4791666666666667 0.47916666666666663
vt 0.4791666666666667 0.42708333333333337
vt 0.4895833333333333 0.47916666666666663
vt 0.6145833333333334 0.32291666666666663
vt 0.6145833333333334 0.23958333333333337
vt 0.625 0.32291666666666663
vt 0.5 0.6979166666666667
vt 0.5 0.7604166666666666
vt 0.4895833333333333 0.6875
vt 0.5625 0.6979166666666667
vt 0.5 0.6979166666666667
vt 0.5729166666666666 0.6875
vt 0.5625 0.7604166666666666
vt 0.5625 0.6979166666666667
vt 0.5729166666666666 0.7708333333333334
vt 0.5625 0.7604166666666666
vt 0.5729166666666666 0.7708333333333334
vt 0.5 0.7604166666666666
vt 0.4895833333333333 0.6770833333333333
vt 0.5729166666666666 0.6770833333333333
vt 0.4895833333333333 0.6875
vt 0.5729166666666666 0.78125
vt 0.4895833333333333 0.78125
vt 0.5729166666666666 0.7708333333333334
vt 0.75 0.4375
vt 0.8020833333333334 0.4375
vt 0.75 0.44791666666666663
vt 0.8020833333333334 0.38541666666666663
vt 0.75 0.38541666666666663
vt 0.8020833333333334 0.375
vt 0.7083333333333334 0.375
vt 0.6979166666666666 0.38541666666666663
vt 0.625 0.375
vt 0.7083333333333334 0.45833333333333337
vt 0.6979166666666666 0.44791666666666663
vt 0.7083333333333334 0.375
vt 0.625 0.45833333333333337
vt 0.6354166666666666 0.44791666666666663
vt 0.7083333333333334 0.45833333333333337
vt 0.625 0.375
vt 0.6354166666666666 0.38541666666666663
vt 0.625 0.45833333333333337
vt 0.7083333333333334 0.46875
vt 0.625 0.46875
vt 0.7083333333333334 0.45833333333333337
vt 0.625 0.36458333333333337
vt 0.7083333333333334 0.36458333333333337
vt 0.625 0.375
vt 0.8125 0.59375
vt 0.8125 0.5416666666666667
vt 0.8229166666666666 0.59375
vt 0.7604166666666666 0.5416666666666667
vt 0.7604166666666666 0.59375
vt 0.75 0.5416666666666667
vt 0.6354166666666666 0.11458333333333337
vt 0.6979166666666666 0.11458333333333337
vt 0.625 0.125
vt 0.6979166666666666 0.05208333333333337
vt 0.7083333333333334 0.04166666666666663
vt 0.6979166666666666 0.11458333333333337
vt 0.6979166666666666 0.05208333333333337
vt 0.6354166666666666 0.05208333333333337
vt 0.7083333333333334 0.04166666666666663
vt 0.6354166666666666 0.11458333333333337
vt 0.625 0.125
vt 0.6354166666666666 0.05208333333333337
vt 0.7604166666666666 0.09375
vt 0.8125 0.09375
vt 0.7604166666666666 0.10416666666666663
vt 0.8125 0.09375
vt 0.8125 0.04166666666666663
vt 0.8229166666666666 0.09375
vt 0.7083333333333334 0.13541666666666663
vt 0.625 0.13541666666666663
vt 0.7083333333333334 0.125
vt 0.8125 0.04166666666666663
vt 0.7604166666666666 0.04166666666666663
vt 0.8125 0.03125
vt 0.4166666666666667 0.36458333333333337
vt 0.4166666666666667 0.26041666666666663
vt 0.4479166666666667 0.36458333333333337
vt 0.11458333333333333 0.3125
vt 0.11458333333333333 0.14583333333333337
vt 0.14583333333333334 0.28125
vt 0.28125 0.3125
vt 0.11458333333333333 0.3125
vt 0.25 0.28125
vt 0.28125 0.14583333333333337
vt 0.28125 0.3125
vt 0.25 0.17708333333333337
vt 0.71875 0.6458333333333333
vt 0.7083333333333334 0.6458333333333333
vt 0.71875 0.53125
vt 0.5833333333333334 0.26041666666666663
vt 0.5833333333333334 0.36458333333333337
vt 0.5520833333333334 0.26041666666666663
vt 0.7083333333333334 0.6458333333333333
vt 0.6979166666666666 0.6458333333333333
vt 0.7083333333333334 0.53125
vt 0.5520833333333334 0.22916666666666663
vt 0.5520833333333334 0.26041666666666663
vt 0.4479166666666667 0.22916666666666663
vt 0.6875 0.53125
vt 0.6979166666666666 0.53125
vt 0.6875 0.6458333333333333
vt 0.6666666666666666 0.53125
vt 0.6770833333333334 0.53125
vt 0.6666666666666666 0.6458333333333333
vt 0.7916666666666666 0.34375
vt 0.78125 0.34375
vt 0.7916666666666666 0.22916666666666663
vt 0.7395833333333334 0.22916666666666663
vt 0.75 0.22916666666666663
vt 0.7395833333333334 0.34375
vt 0.71875 0.78125
vt 0.7083333333333334 0.78125
vt 0.71875 0.6770833333333333
vt 0.6666666666666666 0.6770833333333333
vt 0.6770833333333334 0.6770833333333333
vt 0.6666666666666666 0.78125
vt 0.6770833333333334 0.53125
vt 0.6875 0.53125
vt 0.6770833333333334 0.6458333333333333
vt 0.7604166666666666 0.22916666666666663
vt 0.7708333333333334 0.22916666666666663
vt 0.7604166666666666 0.34375
vt 0.78125 0.34375
vt 0.7708333333333334 0.34375
vt 0.78125 0.22916666666666663
vt 0.75 0.22916666666666663
vt 0.7604166666666666 0.22916666666666663
vt 0.75 0.34375
vt 0.6875 0.6770833333333333
vt 0.6979166666666666 0.6770833333333333
vt 0.6875 0.78125
vt 0.7083333333333334 0.78125
vt 0.6979166666666666 0.78125
vt 0.7083333333333334 0.6770833333333333
vt 0.6770833333333334 0.6770833333333333
vt 0.6875 0.6770833333333333
vt 0.6770833333333334 0.78125
vt 0.5520833333333334 0.39583333333333337
vt 0.4479166666666667 0.39583333333333337
vt 0.5520833333333334 0.36458333333333337
vt 0.5520833333333334 0.36458333333333337
vt 0.4479166666666667 0.36458333333333337
vt 0.5520833333333334 0.26041666666666663
vn 0 1 0
vn 0 -1 0
vn -1 0 0
vn 0 -1 0
vn 0 0 -1
vn 0 0 1
vn 1 0 0
vn 1 0 0
vn 0 1 0
vn 0 0 -1
vn 0 0 -1
vn -1 0 0
vn -0.8320505503533092 0.5546998122018392 0
vn 0 0 1
vn 0 0 1
vn -1 0 0
vn 0 0 -1
vn 1 0 0
vn 0 0 1
vn 1 0 0
vn 1 0 0
vn 1 0 0
vn 0 0 1
vn 0 0 1
vn 0 0 1
vn 0 0 1
vn -1 0 0
vn -1 0 0
vn -1 0 0
vn -1 0 0
vn 0 0 -1
vn 0 0 -1
vn 0 0 -1
vn 0 0 -1
vn 1 0 0
vn -1 0 0
vn -1 0 0
vn 0 1 0
vn 1 0 0
vn 0 1 0
vn 0 -1 0
vn 0 1 0
vn 0 -1 0
vn -1 0 0
vn 1 0 0
vn 0 -1 0
vn 0 1 0
vn 0 1 0
vn 0 -1 0
vn 0 0 -1
vn 0 0 1
vn 1 0 0
vn 1 0 0
vn 1 0 0
vn 1 0 0
vn 0 0 1
vn 0 0 1
vn 0 0 -1
vn 0 0 -1
vn 0 0 -1
vn 0 0 -1
vn 0 0 -1
vn 0 0 -1
vn -1 0 0
vn 1 0 0
vn 0 -1 0
vn 0 1 0
vn -1 0 0
vn -1 0 0
vn -1 0 0
vn -1 0 0
vn 0 1 0
vn 0 -1 0
vn 0 0 -1
vn 0 0 1
vn 0 0 1
vn 0 0 1
vn 0 0 1
vn 0 0 1
vn 0 1 0
vn 1 0 0
vn 0 -1 0
vn 0 -1 0
vn 0 0 -1
vn 1 0 0
vn 1 0 0
vn 1 0 0
vn 0 0 -1
vn 0 0 1
vn 0.5449883505954143 0 -0.8384436163006371
vn 0 1 0
vn 1 0 0
vn 0 0 1
vn 0 0 -1
vn 0 0 1
vn 0 0 -1
vn 0 0 1
vn 0.5449883505954143 0 0.8384436163006371
vn 1 0 0
vn 0.5449883505954143 0 -0.8384436163006371
vn 0.5449883505954143 0 0.8384436163006371
vn 1 0 0
vn 0.5449883505954143 0 -0.8384436163006371
vn 0.5449883505954143 0 0.8384436163006371
vn 0 -1 0
vn 1 0 0
vn 0 1 0
vn 0 -1 0
vn -1 0 0
vn 0 -1 0
vn 0 0 -1
vn 0 0 1
vn 1 0 0
vn 1 0 0
vn 0 1 0
vn 0 0 -1
vn 0 0 -1
vn -1 0 0
vn -0.8320505503533092 0.5546998122018392 0
vn 0 0 1
vn 0 0 1
vn -1 0 0
vn 0 0 -1
vn 1 0 0
vn 0 0 1
vn 1 0 0
vn 1 0 0
vn 1 0 0
vn 0 0 1
vn 0 0 1
vn 0 0 1
vn 0 0 1
vn 0 0 1
vn -1 0 0
vn -1 0 0
vn -1 0 0
vn -1 0 0
vn 0 0 -1
vn 0 0 -1
vn 0 0 -1
vn 0 0 -1
vn 0 0 -1
vn 1 0 0
vn -1 0 0
vn -1 0 0
vn 0 1 0
vn 1 0 0
vn 0 1 0
vn 0 -1 0
vn 0 1 0
vn 0 -1 0
vn -1 0 0
vn 1 0 0
vn 0 -1 0
vn 0 1 0
vn 0 1 0
vn 0 -1 0
vn 0 0 -1
vn 0 0 1
vn 1 0 0
vn 1 0 0
vn 1 0 0
vn 1 0 0
vn 0 0 1
vn 0 0 1
vn 0 0 -1
vn 0 0 -1
vn 0 0 -1
vn 0 0 -1
vn 0 0 -1
vn 0 0 -1
vn -1 0 0
vn 1 0 0
vn 0 -1 0
vn 0 1 0
vn -1 0 0
vn -1 0 0
vn -1 0 0
vn -1 0 0
vn 0 1 0
vn 0 -1 0
vn 0 0 -1
vn 0 0 1
vn 0 0 1
vn 0 0 1
vn 0 0 1
vn 0 0 1
vn 0 1 0
vn 1 0 0
vn 0 -1 0
vn 0 -1 0
vn 0 0 -1
vn 1 0 0
vn 1 0 0
vn 1 0 0
vn 0 0 -1
vn 0 0 1
vn 0.5449883505954143 0 -0.8384436163006371
vn 0 1 0
vn 1 0 0
vn 0 0 1
vn 0 0 -1
vn 0 0 1
vn 0 0 -1
vn 0 0 1
vn 0.5449883505954143 0 0.8384436163006371
vn 1 0 0
vn 0.5449883505954143 0 -0.8384436163006371
vn 0.5449883505954143 0 0.8384436163006371
vn 1 0 0
vn 0.5449883505954143 0 -0.8384436163006371
vn 0.5449883505954143 0 0.8384436163006371
vn 0 -1 0
vn 1 0 0
f 2/1/1 3/2/1 4/3/1
f 5/4/2 6/5/2 7/6/2
f 8/7/3 9/8/3 10/9/3
f 11/10/4 12/11/4 13/12/4
f 14/13/5 10/14/5 11/15/5
f 4/16/6 15/17/6 9/18/6
f 3/19/7 11/20/7 15/21/7
f 12/22/8 16/23/8 17/24/8
f 18/25/9 19/26/9 20/27/9
f 11/28/10 10/29/10 21/30/10
f 21/31/11 18/32/11 12/33/11
f 19/34/12 21/35/12 22/36/12
f 21/37/13 10/38/13 9/39/13
f 9/40/14 15/41/14 22/42/14
f 23/43/15 20/44/15 22/45/15
f 24/46/16 25/47/16 26/48/16
f 27/49/17 28/50/17 29/51/17
f 30/52/18 31/53/18 32/54/18
f 33/55/19 34/56/19 35/57/19
f 36/58/20 37/59/20 2/60/20
f 38/61/21 7/62/21 6/63/21
f 36/64/22 39/65/22 7/66/22
f 40/67/23 39/68/23 4/69/23
f 7/70/24 39/71/24 40/72/24
f 41/73/25 42/74/25 43/75/25
f 44/76/26 8/77/26 43/78/26
f 45/79/27 8/80/27 14/81/27
f 46/82/28 5/83/28 43/84/28
f 43/85/29 8/86/29 45/87/29
f 47/88/30 14/89/30 5/90/30
f 3/91/31 48/92/31 49/93/31
f 5/94/32 14/95/32 49/96/32
f 50/97/33 51/98/33 6/99/33
f 48/100/34 2/101/34 6/102/34
f 6/103/35 2/104/35 37/105/35
f 40/106/36 1/107/36 52/108/36
f 33/109/37 53/110/37 54/111/37
f 41/112/38 52/113/38 55/114/38
f 42/115/39 55/116/39 56/117/39
f 57/118/40 58/119/40 59/120/40
f 36/121/41 60/122/41 61/123/41
f 62/124/42 63/125/42 64/126/42
f 31/127/43 65/128/43 66/129/43
f 29/130/44 67/131/44 68/132/44
f 27/133/45 69/134/45 70/135/45
f 48/136/46 71/137/46 72/138/46
f 50/139/47 73/140/47 74/141/47
f 75/142/48 76/143/48 77/144/48
f 25/145/49 78/146/49 79/147/49
f 45/148/50 80/149/50 81/150/50
f 46/151/51 82/152/51 83/153/51
f 63/154/52 61/155/52 60/156/52
f 65/157/53 64/158/53 60/159/53
f 66/160/54 65/161/54 59/162/54
f 61/163/55 63/164/55 66/165/55
f 37/166/56 61/167/56 58/168/56
f 30/169/57 64/170/57 65/171/57
f 32/172/58 66/173/58 63/174/58
f 38/175/59 59/176/59 60/177/59
f 68/178/60 72/179/60 71/180/60
f 69/181/61 71/182/61 74/183/61
f 70/184/62 74/185/62 73/186/62
f 73/187/63 72/188/63 68/189/63
f 51/190/64 74/191/64 71/192/64
f 49/193/65 72/194/65 73/195/65
f 28/196/66 70/197/66 67/198/66
f 84/199/67 68/200/67 69/201/67
f 77/202/68 76/203/68 80/204/68
f 78/205/69 77/206/69 83/207/69
f 79/208/70 78/209/70 82/210/70
f 76/211/71 79/212/71 81/213/71
f 85/214/72 81/215/72 82/216/72
f 47/217/73 83/218/73 80/219/73
f 24/220/74 77/221/74 78/222/74
f 26/223/75 79/224/75 76/225/75
f 86/226/76 1/227/76 56/228/76
f 52/229/77 1/230/77 86/231/77
f 54/232/78 55/233/78 52/234/78
f 56/235/79 55/236/79 54/237/79
f 87/238/80 86/239/80 53/240/80
f 35/241/81 88/242/81 86/243/81
f 44/244/82 56/245/82 1/246/82
f 34/247/83 54/248/83 88/249/83
f 17/250/84 89/251/84 90/252/84
f 13/253/85 17/254/85 91/255/85
f 23/256/86 91/257/86 92/258/86
f 18/259/87 92/260/87 16/261/87
f 93/262/88 94/263/88 95/264/88
f 92/265/89 96/266/89 97/267/89
f 98/268/90 99/269/90 94/270/90
f 97/271/91 89/272/91 17/273/91
f 99/274/92 98/275/92 100/276/92
f 101/277/93 102/278/93 103/279/93
f 104/280/94 105/281/94 106/282/94
f 107/283/95 108/284/95 109/285/95
f 110/286/96 111/287/96 112/288/96
f 113/289/97 114/290/97 115/291/97
f 116/292/98 100/293/98 102/294/98
f 117/295/99 118/296/99 119/297/99
f 118/298/100 117/299/100 105/300/100
f 120/301/101 119/302/101 108/303/101
f 121/304/102 122/305/102 123/306/102
f 122/307/103 121/308/103 111/309/103
f 124/310/104 123/311/104 114/312/104
f 91/313/105 90/314/105 96/315/105
f 90/316/106 89/317/106 97/318/106
f 39/319/107 2/320/107 4/321/107
f 43/322/108 5/323/108 7/324/108
f 14/325/109 8/326/109 10/327/109
f 15/328/110 11/329/110 13/330/110
f 3/331/111 14/332/111 11/333/111
f 8/334/112 4/335/112 9/336/112
f 4/337/113 3/338/113 15/339/113
f 13/340/114 12/341/114 17/342/114
f 23/343/115 18/344/115 20/345/115
f 12/346/116 11/347/116 21/348/116
f 21/349/117 19/350/117 18/351/117
f 20/352/118 19/353/118 22/354/118
f 22/355/119 21/356/119 9/357/119
f 22/358/120 15/359/120 13/360/120
f 13/361/121 23/362/121 22/363/121
f 75/364/122 24/365/122 26/366/122
f 84/367/123 27/368/123 29/369/123
f 62/370/124 30/371/124 32/372/124
f 87/373/125 33/374/125 35/375/125
f 39/376/126 36/377/126 2/378/126
f 57/379/127 38/380/127 6/381/127
f 38/382/128 36/383/128 7/384/128
f 4/385/129 8/386/129 44/387/129
f 44/388/130 40/389/130 4/390/130
f 41/391/131 7/392/131 40/393/131
f 7/394/132 41/395/132 43/396/132
f 42/397/133 44/398/133 43/399/133
f 47/400/134 45/401/134 14/402/134
f 85/403/135 46/404/135 43/405/135
f 85/406/136 43/407/136 45/408/136
f 46/409/137 47/410/137 5/411/137
f 49/412/138 14/413/138 3/414/138
f 3/415/139 2/416/139 48/417/139
f 50/418/140 5/419/140 49/420/140
f 5/421/141 50/422/141 6/423/141
f 51/424/142 48/425/142 6/426/142
f 57/427/143 6/428/143 37/429/143
f 41/430/144 40/431/144 52/432/144
f 34/433/145 33/434/145 54/435/145
f 42/436/146 41/437/146 55/438/146
f 44/439/147 42/440/147 56/441/147
f 38/442/148 57/443/148 59/444/148
f 37/445/149 36/446/149 61/447/149
f 30/448/150 62/449/150 64/450/150
f 32/451/151 31/452/151 66/453/151
f 84/454/152 29/455/152 68/456/152
f 28/457/153 27/458/153 70/459/153
f 49/460/154 48/461/154 72/462/154
f 51/463/155 50/464/155 74/465/155
f 24/466/156 75/467/156 77/468/156
f 26/469/157 25/470/157 79/471/157
f 85/472/158 45/473/158 81/474/158
f 47/475/159 46/476/159 83/477/159
f 64/478/160 63/479/160 60/480/160
f 59/481/161 65/482/161 60/483/161
f 58/484/162 66/485/162 59/486/162
f 58/487/163 61/488/163 66/489/163
f 57/490/164 37/491/164 58/492/164
f 31/493/165 30/494/165 65/495/165
f 62/496/166 32/497/166 63/498/166
f 36/499/167 38/500/167 60/501/167
f 69/502/168 68/503/168 71/504/168
f 70/505/169 69/506/169 74/507/169
f 67/508/170 70/509/170 73/510/170
f 67/511/171 73/512/171 68/513/171
f 48/514/172 51/515/172 71/516/172
f 50/517/173 49/518/173 73/519/173
f 29/520/174 28/521/174 67/522/174
f 27/523/175 84/524/175 69/525/175
f 83/526/176 77/527/176 80/528/176
f 82/529/177 78/530/177 83/531/177
f 81/532/178 79/533/178 82/534/178
f 80/535/179 76/536/179 81/537/179
f 46/538/180 85/539/180 82/540/180
f 45/541/181 47/542/181 80/543/181
f 25/544/182 24/545/182 78/546/182
f 75/547/183 26/548/183 76/549/183
f 53/550/184 86/551/184 56/552/184
f 88/553/185 52/554/185 86/555/185
f 88/556/186 54/557/186 52/558/186
f 53/559/187 56/560/187 54/561/187
f 33/562/188 87/563/188 53/564/188
f 87/565/189 35/566/189 86/567/189
f 40/568/190 44/569/190 1/570/190
f 35/571/191 34/572/191 88/573/191
f 91/574/192 17/575/192 90/576/192
f 23/577/193 13/578/193 91/579/193
f 18/580/194 23/581/194 92/582/194
f 12/583/195 18/584/195 16/585/195
f 125/586/196 93/587/196 95/588/196
f 16/589/197 92/590/197 97/591/197
f 93/592/198 98/593/198 94/594/198
f 16/595/199 97/596/199 17/597/199
f 116/598/200 99/599/200 100/600/200
f 126/601/201 101/602/201 103/603/201
f 127/604/202 104/605/202 106/606/202
f 128/607/203 107/608/203 109/609/203
f 129/610/204 110/611/204 112/612/204
f 130/613/205 113/614/205 115/615/205
f 101/616/206 116/617/206 102/618/206
f 120/619/207 117/620/207 119/621/207
f 104/622/208 118/623/208 105/624/208
f 107/625/209 120/626/209 108/627/209
f 124/628/210 121/629/210 123/630/210
f 110/631/211 122/632/211 111/633/211
f 113/634/212 124/635/212 114/636/212
f 92/637/213 91/638/213 96/639/213
f 96/640/214 90/641/214 97/642/214
o Head
v -0.1 1.124322 0
v -0.1 0.995645 -0.375
v -0.1 0.995645 0.375
v 0.4 1.124322 -0.375
v 0.4 0.995645 -0.375
v 0.4 1.124322 0
v 0.4 0.995645 0.375
v -0.1 1.124322 0.375
v 0 1.124322 -0.3
v 0 2.025066 -0.3
v 0.3 2.025066 -0.3
v 0.3 1.124322 -0.3
v 0.3 1.124322 -0.075
v 0 1.124322 -0.075
v -0.1 1.124322 -0.375
v 0.3 2.025066 -0.075
v 0 2.025066 -0.075
v 0.3 1.124322 0.075
v 0.3 1.124322 0.3
v 0.4 1.124322 0.375
v 0 1.124322 0.075
v 0 1.124322 0.3
v 0 2.025066 0.3
v 0 2.025066 0.075
v 0.3 2.025066 0.075
v 0.3 2.025066 0.3
vt 0.6666666666666666 0.8854166666666666
vt 0.6875 0.84375
vt 0.6875 0.9166666666666666
vt 0.7604166666666666 0.8333333333333334
vt 0.7604166666666666 0.84375
vt 0.6875 0.84375
vt 0.78125 0.8854166666666666
vt 0.7604166666666666 0.9166666666666666
vt 0.7604166666666666 0.84375
vt 0.6875 0.9270833333333334
vt 0.6875 0.9166666666666666
vt 0.7604166666666666 0.9166666666666666
vt 0.6875 0.84375
vt 0.7604166666666666 0.84375
vt 0.7604166666666666 0.9166666666666666
vt 0.7916666666666666 0.9270833333333334
vt 0.7916666666666666 1
vt 0.75 1
vt 0.7916666666666666 0.8541666666666666
vt 0.7916666666666666 0.875
vt 0.78125 0.8854166666666666
vt 0.8333333333333334 0.8541666666666666
vt 0.7916666666666666 0.8541666666666666
vt 0.78125 0.84375
vt 0.8333333333333334 0.875
vt 0.8333333333333334 0.8541666666666666
vt 0.84375 0.84375
vt 0.7916666666666666 0.875
vt 0.8333333333333334 0.875
vt 0.84375 0.8854166666666666
vt 0.7083333333333334 0.9270833333333334
vt 0.7083333333333334 1
vt 0.6666666666666666 1
vt 0.7916666666666666 0.8854166666666666
vt 0.7916666666666666 0.90625
vt 0.78125 0.9166666666666666
vt 0.8333333333333334 0.8854166666666666
vt 0.7916666666666666 0.8854166666666666
vt 0.78125 0.8854166666666666
vt 0.8333333333333334 0.90625
vt 0.8333333333333334 0.8854166666666666
vt 0.84375 0.8854166666666666
vt 0.7916666666666666 0.90625
vt 0.8333333333333334 0.90625
vt 0.84375 0.9166666666666666
vt 0.9895833333333334 0.9270833333333334
vt 0.9895833333333334 1
vt 0.9583333333333334 1
vt 0.90625 0.9270833333333334
vt 0.90625 1
vt 0.875 1
vt 0.8229166666666666 0.9270833333333334
vt 0.8229166666666666 1
vt 0.7916666666666666 1
vt 0.875 0.9270833333333334
vt 0.875 1
vt 0.8333333333333334 1
vt 0.75 0.9270833333333334
vt 0.75 1
vt 0.7083333333333334 1
vt 0.9583333333333334 0.9270833333333334
vt 0.9583333333333334 1
vt 0.90625 1
vt 0.6875 0.9166666666666666
vt 0.6666666666666666 0.9166666666666666
vt 0.6666666666666666 0.8854166666666666
vt 0.6666666666666666 0.8854166666666666
vt 0.6666666666666666 0.84375
vt 0.6875 0.84375
vt 0.6875 0.8333333333333334
vt 0.7604166666666666 0.8333333333333334
vt 0.6875 0.84375
vt 0.7604166666666666 0.84375
vt 0.78125 0.84375
vt 0.78125 0.8854166666666666
vt 0.78125 0.8854166666666666
vt 0.78125 0.9166666666666666
vt 0.7604166666666666 0.9166666666666666
vt 0.7604166666666666 0.9270833333333334
vt 0.6875 0.9270833333333334
vt 0.7604166666666666 0.9166666666666666
vt 0.6875 0.9166666666666666
vt 0.6875 0.84375
vt 0.7604166666666666 0.9166666666666666
vt 0.75 0.9270833333333334
vt 0.7916666666666666 0.9270833333333334
vt 0.75 1
vt 0.78125 0.84375
vt 0.7916666666666666 0.8541666666666666
vt 0.78125 0.8854166666666666
vt 0.84375 0.84375
vt 0.8333333333333334 0.8541666666666666
vt 0.78125 0.84375
vt 0.84375 0.8854166666666666
vt 0.8333333333333334 0.875
vt 0.84375 0.84375
vt 0.78125 0.8854166666666666
vt 0.7916666666666666 0.875
vt 0.84375 0.8854166666666666
vt 0.6666666666666666 0.9270833333333334
vt 0.7083333333333334 0.9270833333333334
vt 0.6666666666666666 1
vt 0.78125 0.8854166666666666
vt 0.7916666666666666 0.8854166666666666
vt 0.78125 0.9166666666666666
vt 0.84375 0.8854166666666666
vt 0.8333333333333334 0.8854166666666666
vt 0.78125 0.8854166666666666
vt 0.84375 0.9166666666666666
vt 0.8333333333333334 0.90625
vt 0.84375 0.8854166666666666
vt 0.78125 0.9166666666666666
vt 0.7916666666666666 0.90625
vt 0.84375 0.9166666666666666
vt 0.9583333333333334 0.9270833333333334
vt 0.9895833333333334 0.9270833333333334
vt 0.9583333333333334 1
vt 0.875 0.9270833333333334
vt 0.90625 0.9270833333333334
vt 0.875 1
vt 0.7916666666666666 0.9270833333333334
vt 0.8229166666666666 0.9270833333333334
vt 0.7916666666666666 1
vt 0.8333333333333334 0.9270833333333334
vt 0.875 0.9270833333333334
vt 0.8333333333333334 1
vt 0.7083333333333334 0.9270833333333334
vt 0.75 0.9270833333333334
vt 0.7083333333333334 1
vt 0.90625 0.9270833333333334
vt 0.9583333333333334 0.9270833333333334
vt 0.90625 1
vn -1 0 0
vn 0 0 -1
vn 1 0 0
vn 0 0 1
vn 0 -1 0
vn 0 0 -1
vn 0 1 0
vn 0 1 0
vn 0 1 0
vn 0 1 0
vn 0 0 1
vn 0 1 0
vn 0 1 0
vn 0 1 0
vn 0 1 0
vn -1 0 0
vn 1 0 0
vn -1 0 0
vn 0 0 1
vn 1 0 0
vn 0 0 -1
vn -1 0 0
vn -1 0 0
vn 0 0 -1
vn 1 0 0
vn 1 0 0
vn 0 0 1
vn 0 -1 0
vn 0 0 -1
vn 0 1 0
vn 0 1 0
vn 0 1 0
vn 0 1 0
vn 0 0 1
vn 0 1 0
vn 0 1 0
vn 0 1 0
vn 0 1 0
vn -1 0 0
vn 1 0 0
vn -1 0 0
vn 0 0 1
vn 1 0 0
vn 0 0 -1
f 131/643/215 132/644/215 133/645/215
f 134/646/216 135/647/216 132/648/216
f 136/649/217 137/650/217 135/651/217
f 138/652/218 133/653/218 137/654/218
f 132/655/219 135/656/219 137/657/219
f 139/658/220 140/659/220 141/660/220
f 142/661/221 143/662/221 136/663/221
f 139/664/222 142/665/222 134/666/222
f 144/667/223 139/668/223 145/669/223
f 143/670/224 144/671/224 131/672/224
f 143/673/225 146/674/225 147/675/225
f 148/676/226 149/677/226 150/678/226
f 151/679/227 148/680/227 136/681/227
f 152/682/228 151/683/228 131/684/228
f 149/685/229 152/686/229 138/687/229
f 152/688/230 153/689/230 154/690/230
f 148/691/231 155/692/231 156/693/231
f 144/694/232 147/695/232 140/696/232
f 149/697/233 156/698/233 153/699/233
f 142/700/234 141/701/234 146/702/234
f 151/703/235 154/704/235 155/705/235
f 133/706/236 138/707/236 131/708/236
f 131/709/237 145/710/237 132/711/237
f 145/712/238 134/713/238 132/714/238
f 135/715/239 134/716/239 136/717/239
f 136/718/240 150/719/240 137/720/240
f 150/721/241 138/722/241 137/723/241
f 133/724/242 132/725/242 137/726/242
f 142/727/243 139/728/243 141/729/243
f 134/730/244 142/731/244 136/732/244
f 145/733/245 139/734/245 134/735/245
f 131/736/246 144/737/246 145/738/246
f 136/739/247 143/740/247 131/741/247
f 144/742/248 143/743/248 147/744/248
f 136/745/249 148/746/249 150/747/249
f 131/748/250 151/749/250 136/750/250
f 138/751/251 152/752/251 131/753/251
f 150/754/252 149/755/252 138/756/252
f 151/757/253 152/758/253 154/759/253
f 149/760/254 148/761/254 156/762/254
f 139/763/255 144/764/255 140/765/255
f 152/766/256 149/767/256 153/768/256
f 143/769/257 142/770/257 146/771/257
f 148/772/258 151/773/258 155/774/258